<?xml version="1.0" standalone="no"?>
<!DOCTYPE svg PUBLIC "-//W3C//DTD SVG 1.1//EN" "http://www.w3.org/Graphics/SVG/1.1/DTD/svg11.dtd" >
<svg xmlns="http://www.w3.org/2000/svg">
<metadata>
This is a custom SVG webfont generated by Font Squirrel.
Copyright   : created by Astigmatic One Eye 1998 writing by El Mack                                                           httpwwwastigmaticcom     mailtoastigmaastigmaticcom
</metadata>
<defs>
<font id="AlphaMackAOERegular" horiz-adv-x="0" >
<font-face units-per-em="2048" ascent="1638" descent="-410" />
<missing-glyph horiz-adv-x="292" />
<glyph unicode=" "  horiz-adv-x="292" />
<glyph unicode="&#x09;" horiz-adv-x="292" />
<glyph unicode="&#xa0;" horiz-adv-x="292" />
<glyph unicode="!" horiz-adv-x="444" d="M0 328q0 55 40 93t95 38q47 0 74 -42t27 -93.5t-36 -87t-87 -35.5q-47 0 -80 39t-33 88zM115 334q8 -4 16 -6q-8 6 -14 6h-2zM129 612q0 111 152 518q31 78 63 183q6 68 66 67q29 0 48 -20.5t19 -48.5q0 -33 -71 -228l-91 -243q-51 -152 -51 -248q0 -29 -19.5 -48.5 t-45.5 -19.5q-70 0 -70 88z" />
<glyph unicode="&#x22;" horiz-adv-x="397" d="M12 1200q0 18 8 35q5 19 6 42q0 11 -1 23q-6 33 -7 31q0 27 -2 92v12q0 93 66 95h5q29 0 48 -24q20 -26 14 -58q-2 -10 -2 -18q2 -16 9 -117q1 -19 1 -35q0 -139 -77 -141q-27 0 -47.5 18t-20.5 45zM20 1233v4v-2v-2zM20 1233v2v2v-4zM283 1200q0 18 8 35q6 18 6 39 q0 13 -2 26q-6 35 -6 31q0 27 -2 92q0 6 -1 12q0 93 66 95h5q29 0 49 -24q20 -26 14 -58q-2 -10 0 -18q2 -16 6 -117q1 -19 1 -36q0 -137 -75 -140q-29 0 -48 18t-21 45zM291 1233l2 4l-2 -2v-2zM291 1233v2l2 2z" />
<glyph unicode="#" horiz-adv-x="794" d="M-14 481q0 29 19.5 47.5t45.5 18.5q10 0 19 -2q10 -2 18 0l59 6q41 76 86 143l7 13h-7q-104 0 -104 69q0 29 19.5 47.5t46.5 18.5q10 0 18 -2q10 -2 18 0q25 2 105 10q86 129 102.5 175t63.5 46q27 0 46 -19.5t19 -45.5q0 -41 -59 -140l106 11q68 100 80 139q18 51 64 51 q29 0 50 -20.5t17 -47.5q-6 -43 -57 -125q84 -16 84 -75q0 -27 -19.5 -46.5t-46.5 -19.5q-18 0 -34.5 7.5t-65.5 7.5l-108 -164q131 -4 131 -80q0 -27 -19.5 -46.5t-46.5 -19.5q-18 0 -34.5 7.5t-65.5 7.5q-23 0 -47 -2q-72 -129 -88 -226q2 6 2 -10q0 -27 -20.5 -46 t-47.5 -19q-68 0 -68 83q0 43 54 154l22 49q-41 -6 -127 -16q-52 -106 -52 -171q0 -9 1 -18v-10q0 -29 -19.5 -48t-46.5 -19q-68 0 -67.5 86t31.5 153l8 19q-92 3 -92 69zM309 565q68 8 115 13q27 49 65 110l31 47q-35 -4 -108 -14zM606 449l2 -3h2zM750 743l2 -2h2z" />
<glyph unicode="$" horiz-adv-x="763" d="M-61 172q0 180 241 598q-45 29 -45 78q0 80 187 153q51 84 157 234q23 25 51 25q27 0 47.5 -19.5t20.5 -46.5q0 -25 -16 -43l-74 -104q29 2 57 0q35 53 72 53q33 0 51.5 -24.5t11.5 -57.5q96 -39 97 -96q0 -27 -19.5 -46.5t-48.5 -19.5q-20 0 -47 19q-35 23 -47 26 l-49 -90q133 -43 133 -133q0 -102 -121 -193q-102 -80 -215 -102q-49 -123 -66 -207q-10 -57 -65 -57q-27 0 -46.5 19.5t-19.5 47.5q0 47 54 191q-53 4 -103 20q-41 -88 -49 -123q-14 -51 -14 -129q0 -27 -19.5 -46t-48.5 -19q-67 0 -67 92zM195 518q47 -12 96 -12 q43 100 98 211l-78 14q-67 -115 -116 -213zM385 852l66 -10l36 67q-39 -6 -77 -18zM455 547q96 49 127 123q-16 10 -58 20q-38 -73 -69 -143z" />
<glyph unicode="%" horiz-adv-x="835" d="M8 915q0 82 64 179q70 104 149 104q25 0 185 12q154 10 186 11q23 0 68 -3.5t67 -3.5q68 0 68 -69q0 -53 -138 -246q-98 -139 -178 -231l-203 -238q-125 -166 -124 -270q0 -27 -19.5 -47.5t-46.5 -20.5q-68 0 -68 86q0 121 82 246q51 78 182.5 213t176.5 201l168 254 q-74 -4 -219 -11q31 -51 30 -108q0 -88 -69.5 -163t-155.5 -75q-74 0 -139.5 54t-65.5 126zM141 913q29 -45 72 -45q31 0 61.5 36t30.5 69q0 59 -59 86q-16 0 -29 4q-23 -20 -49.5 -70.5t-26.5 -74.5v-5zM354 281q0 82 64 178q70 104 147 104q86 0 151.5 -68.5t65.5 -156.5 t-68.5 -163t-156.5 -75q-72 0 -137.5 55.5t-65.5 125.5zM485 281q29 -47 72 -48q31 0 61.5 37t30.5 68q0 33 -25.5 62.5t-58.5 29.5q-23 -16 -51.5 -68.5t-28.5 -78.5v-2z" />
<glyph unicode="&#x26;" horiz-adv-x="1538" d="M0 741q0 80 29 172q39 121 100 121q41 266 317 443q252 162 537 161q213 0 322 -102q207 -188 206 -492q0 -326 -235 -630q-254 -326 -567 -326q-274 0 -488 188q-221 195 -221 465zM129 741q0 -217 184 -372q174 -152 394 -152q262 0 477 287q199 268 198 540 q0 246 -165 398q-72 66 -234 65q-254 0 -479 -147q-252 -168 -252 -408q0 -190 143.5 -346.5t329.5 -156.5q307 0 442 411q20 61 21 113q0 164 -211 295q-27 16 -59 16q-86 0 -216 -96q-137 -100 -139 -182q182 147 275 147q86 0 155.5 -91t69.5 -181q0 -113 -96.5 -199 t-210.5 -86q-137 0 -234 135q-88 125 -88 266q0 45 10 82q33 113 194 223.5t280 110.5q74 0 133 -39q266 -178 266 -401q0 -70 -27 -154q-162 -502 -565 -502q-205 0 -375 152q-164 145 -213 350q-8 -39 -8 -78zM588 885q61 -158 168 -158q61 0 118.5 48t57.5 108 q0 33 -32 86t-64 53q-37 0 -126 -71q-84 -67 -118 -66h-4z" />
<glyph unicode="'" horiz-adv-x="145" d="M12 1200q0 18 8 35q5 19 6 42q0 11 -1 23q-6 33 -7 31q0 27 -2 92v12q0 93 66 95h5q29 0 48 -24q20 -26 15 -58q-2 -10 -3 -18q2 -16 9 -117q1 -19 1 -35q0 -139 -77 -141q-27 0 -47.5 18t-20.5 45zM20 1233v4v-2v-2zM20 1233v2v2v-4z" />
<glyph unicode="(" horiz-adv-x="411" d="M-10 578q0 33 8 67q25 111 113 215l170 191q22 27 51 27q9 0 18 -3q27 -6 41 -28q10 -16 10 -34q0 -8 -2 -16q-4 -16 -128 -150q-124 -135 -146 -229q-4 -14 -2 -22q10 -25 27 -57q43 -70 53 -80q23 -25 90 -60q6 0 18 -2q27 -4 41.5 -27.5t7.5 -50.5q-12 -51 -61 -51h-4 q-127 0 -227 127q-78 97 -78 183z" />
<glyph unicode=")" horiz-adv-x="434" d="M-35 362q0 29 19.5 48.5t46 19.5t18.5 -2q72 16 101 37q12 8 71 65q14 25 37 50q4 8 4 24q0 94 -91 253t-91 175q0 27 19.5 47.5t45.5 20.5q41 0 62 -41l125 -223q61 -123 61 -236q0 -131 -125 -229q-100 -78 -196 -78q-29 0 -58 6q-49 12 -49 63z" />
<glyph unicode="*" horiz-adv-x="784" d="M-8 999q0 57 55 66l203 35q-152 297 -152 334q0 27 19.5 46t46.5 19q45 0 63 -45q27 -68 115 -244q16 98 57 289q12 53 66 53q27 0 46 -19.5t19 -45.5q0 -6 -22 -121q31 37 63 37q27 0 46.5 -19.5t19.5 -48t-20.5 -47t-108.5 -143.5q260 45 266 45q27 0 46.5 -19.5 t19.5 -46.5q0 -55 -56 -65l-331 -58q55 -102 84 -149q61 -102 96 -139q23 -20 22 -49q0 -27 -19.5 -46.5t-47.5 -19.5q-55 0 -185 221q-31 -176 -30.5 -205.5t-20 -49t-47 -19.5t-46 19.5t-19.5 47.5q0 37 26 193q-135 -180 -190 -180q-27 0 -46.5 19.5t-19.5 45.5 q0 39 34 58.5t173 212.5q-154 -27 -160 -27q-27 0 -46 19t-19 46z" />
<glyph unicode="+" horiz-adv-x="475" d="M0 627q0 29 19.5 47t46.5 18q10 0 18 -2q10 -2 18 0q20 2 37 4q0 199 82 199q27 0 46.5 -19.5t19.5 -46.5q0 -59 -7.5 -73.5t-7.5 -40.5q162 0 162 -82q0 -27 -19.5 -46.5t-45.5 -19.5q-18 0 -34 7.5t-50 7.5q10 -20 10 -99q0 -125 -70 -125q-27 0 -46 27t-19 59 q0 8 2 19q4 27 0 59l-4 39q-18 -2 -54 -2q-104 0 -104 70zM276 750l3 2v2zM332 575l2 -2h2z" />
<glyph unicode="," horiz-adv-x="294" d="M-133 -133q0 45 33 59q18 6 69 6q135 0 135 158q0 84 -15 122l-15 38q0 27 19.5 46t45.5 19q68 0 88 -82q10 -41 11 -141q0 -131 -70 -211t-199 -80q-102 0 -102 66z" />
<glyph unicode="-" horiz-adv-x="471" d="M-6 633q0 27 20.5 46t46.5 19q8 0 18.5 -2t18.5 -2q43 12 158 23h16q158 0 158 -80q0 -27 -20.5 -47.5t-47.5 -20.5q-16 0 -32.5 8.5t-67.5 8.5q-35 0 -78 -11.5t-86 -11.5q-104 0 -104 70z" />
<glyph unicode="." horiz-adv-x="247" d="M0 256q0 45 34 88t77 43q35 0 57 -24.5t22 -59.5q0 -47 -32.5 -90t-75.5 -43q-35 0 -58.5 25.5t-23.5 60.5z" />
<glyph unicode="/" horiz-adv-x="786" d="M-2 178q0 66 31 154q55 150 463 755q193 287 219 365q18 49 65 49q27 0 46.5 -19.5t19.5 -45.5q0 -51 -191 -342q-315 -483 -348 -537q-182 -301 -172 -387v-10q0 -29 -19.5 -48.5t-45.5 -19.5q-68 0 -68 86z" />
<glyph unicode="0" horiz-adv-x="1007" d="M0 319q0 117 244 437q215 281 256 305q-14 16 -15 39q0 68 82 67q172 0 275 -67q123 -80 123 -244q0 -258 -177 -442q-100 -104 -280 -197q-195 -102 -326 -102q-88 0 -135 57t-47 147zM133 317q0 -70 41 -69h2h19q41 2 165 47q471 176 471 561q0 160 -237 176 q6 -12 6 -28q0 -23 -16 -43l-256 -316q-195 -252 -195 -328z" />
<glyph unicode="1" horiz-adv-x="626" d="M-2 178q0 66 31 154q37 102 139 260l168 246l110 163q78 121 94.5 167t63.5 46q27 0 46.5 -19t19.5 -46q0 -51 -146 -268q-242 -358 -264 -398q-130 -212 -130 -301q0 -7 1 -12v-10q0 -29 -19.5 -48.5t-45.5 -19.5q-68 0 -68 86z" />
<glyph unicode="2" horiz-adv-x="991" d="M6 176q0 41 51 74q104 74 410 405q205 221 205 342q0 33 -47 54q-37 14 -78 14q-55 0 -186.5 -48t-188.5 -48q-29 0 -48.5 19.5t-19.5 46t19.5 46t48.5 19.5q37 0 176 49t203 49q100 0 172 -51q82 -57 82 -154q0 -150 -225 -411q-115 -135 -351 -357h4q25 0 230 64 q225 72 348 71q133 0 133 -77q0 -27 -19.5 -46.5t-45.5 -19.5q-16 0 -27.5 5t-38.5 5q-113 0 -323.5 -67.5t-325.5 -67.5q-158 0 -158 84z" />
<glyph unicode="3" horiz-adv-x="972" d="M-2 199q0 49 56.5 95t107.5 46q27 0 46 -19.5t19 -46.5q0 -49 -45 -63q-18 -6 -37 -16q33 -37 91 -37q82 0 217 61q119 53 200 156q90 115 90 235q0 25 -4 39q-8 6 -116 51q-76 31 -76 86q0 51 69 80q49 20 154 131q98 104 133 164q-16 18 -61 19q-55 0 -182.5 -41 t-188.5 -41q-84 0 -84 69q0 27 19.5 46.5t46.5 19.5q8 0 16 -2q2 0 6 -1q36 0 169 40q146 43 198 43q68 0 134 -41t66 -103q0 -63 -120 -202q-96 -109 -177 -172q72 -31 102 -70t30 -115q0 -162 -113 -307q-102 -135 -260 -205.5t-271 -70.5q-76 0 -151 47q-84 53 -84 125z M469 1231h2h-2z" />
<glyph unicode="4" horiz-adv-x="1253" d="M-4 707q0 41 36 75.5t87 155.5q47 111 58 171t73 60q59 0 59 -73q0 -55 -63 -199q-61 -133 -103 -188q49 -25 117 -25q88 0 469 111l76 129l278 458q45 84 138 226q27 31 57 30q27 0 46 -19.5t19 -45.5q0 -18 -10 -37l-418 -686q8 2 19 2q27 0 46 -19.5t19 -46.5 q0 -47 -71 -73l-111 -31l-141 -248q-78 -139 -129 -252q37 -16 37 -59q0 -35 -44 -79t-81 -44q-78 0 -78 88q0 92 254 541q-287 -78 -375 -78t-166 35q-98 43 -98 121z" />
<glyph unicode="5" horiz-adv-x="1116" d="M-4 223q0 113 74 113q27 0 46 -19.5t19 -46.5q0 -8 -4 -24.5t-4 -26.5q10 -4 29 -4q76 0 204 72q139 78 140 145q0 35 -62 78q-45 33 -92 51q-174 70 -174 262q0 90 41 125q299 246 376 246t227.5 14.5t225.5 14.5q154 0 154 -78q0 -27 -20 -47q-20 -19 -46 -19 q-16 0 -30.5 6.5t-52.5 6.5q-59 0 -226 -17q-76 -2 -223 -14q-41 -6 -291 -207q-4 -12 -4 -31q0 -102 90 -137q238 -96 238 -254q0 -129 -176 -244q-162 -104 -299 -104q-70 0 -115 35.5t-45 103.5zM1098 1087l2 -2z" />
<glyph unicode="6" horiz-adv-x="573" d="M4 309q0 20 10 37q12 125 82 297q33 76 183 254q133 158 221 236q23 20 47 20q29 0 48 -19.5t19 -46t-18 -47.5q-332 -340 -375 -444q-37 -90 -57 -174q39 10 78 10q102 0 176 -55q82 -59 82 -160q0 -160 -234 -160q-238 0 -252 219q-10 15 -10 33zM147 276 q8 -86 119 -86q100 0 101 27q0 41 -40 61.5t-85.5 20.5t-94.5 -23z" />
<glyph unicode="7" horiz-adv-x="747" d="M-8 66q0 31 22.5 53t102.5 194q92 193 112 230q29 47 185 245q76 94 219 289q-63 -2 -215 -22q-137 -20 -215 -21q-123 0 -123 76q0 27 19.5 46.5t45.5 19.5q14 0 25.5 -4.5t30.5 -4.5q76 0 226.5 21.5t227.5 21.5q145 0 146 -82q0 -51 -123 -219l-160 -202 q-63 -76 -174 -232q-12 -20 -123 -250q-90 -186 -123 -211q-20 -14 -41 -14q-27 0 -46 19.5t-19 46.5zM14 117l2 2z" />
<glyph unicode="8" horiz-adv-x="802" d="M0 291q0 78 121 219q47 55 184 188q-119 80 -119 189q0 135 172 250q156 104 301 104q92 0 146.5 -49t54.5 -139q0 -111 -117 -213q-68 -59 -213 -142q150 -164 150 -315q0 -143 -127 -221q-104 -66 -258 -66q-111 0 -193 43q-102 52 -102 152zM133 297q0 -68 164 -68 q94 0 162 31q88 41 88 125q0 104 -129 240q-285 -281 -285 -328zM319 887q0 -51 97 -101q160 92 186 111q125 88 125 158q0 53 -68 53q-88 0 -208 -70q-132 -77 -132 -151z" />
<glyph unicode="9" horiz-adv-x="690" d="M-4 145q0 37 33 60q240 158 417 495q-90 -39 -155 -38q-96 0 -178 66.5t-82 160.5q0 51 37 125q57 113 158.5 181.5t224.5 68.5q117 0 184 -67t67 -183q0 -82 -79 -254q-231 -502 -529 -672q-14 -8 -33 -8q-27 0 -46 19t-19 46zM164 889q0 -39 45 -67.5t84 -28.5 q55 0 133 45l119 75q27 61 26 101q0 119 -120 119q-113 0 -200 -89t-87 -155z" />
<glyph unicode=":" horiz-adv-x="272" d="M0 256q0 45 34 88t77 43q35 0 57 -24.5t22 -59.5q0 -47 -32.5 -90t-75.5 -43q-35 0 -58.5 25.5t-23.5 60.5zM41 768q0 45 34 88t77 43q35 0 57 -24.5t22 -59.5q0 -47 -32.5 -90t-75.5 -43q-35 0 -58.5 25.5t-23.5 60.5z" />
<glyph unicode=";" horiz-adv-x="294" d="M-133 -133q0 45 33 59q18 6 69 6q135 0 135 158q0 84 -15 122l-15 38q0 27 19.5 46t45.5 19q68 0 88 -82q10 -41 11 -141q0 -131 -70 -211t-199 -80q-102 0 -102 66zM61 768q0 45 34 88t77 43q35 0 57.5 -24.5t22.5 -59.5q0 -47 -33 -90t-76 -43q-35 0 -58.5 25.5 t-23.5 60.5z" />
<glyph unicode="&#x3c;" horiz-adv-x="555" d="M-27 553q0 45 43 84q115 104 398 270q20 13 39 13q17 0 32 -11q31 -20 31 -57q0 -18 -10 -35q-18 -27 -166 -115q-172 -100 -213 -135q-6 -4 -10 -20q8 -8 18 -15q143 -94 311 -149q45 -16 46 -64q0 -35 -27 -54q-17 -13 -38 -13q-11 0 -21 4q-109 31 -179 68 q-47 23 -161 98q-93 59 -93 131z" />
<glyph unicode="=" horiz-adv-x="503" d="M0 563q0 27 19.5 46.5t46.5 19.5q16 0 30.5 -5.5t46.5 -5.5q143 0 226 27q12 4 22 4q27 0 46.5 -19.5t19.5 -45.5q0 -45 -43 -64q-88 -35 -260 -35q-154 0 -154 78zM33 741q0 29 19.5 48.5t47.5 19.5q8 0 17 -2q0 -2 18 -2q31 0 94.5 4t94.5 4q133 0 133 -78 q0 -27 -19.5 -46t-46.5 -19q-10 0 -31.5 5t-33.5 5q-33 0 -95.5 -4t-93.5 -4q-104 -1 -104 69zM96 623l2 -2z" />
<glyph unicode="&#x3e;" horiz-adv-x="600" d="M6 311q0 20 10 37q16 27 166 115q170 100 213 135q6 4 8 20q-6 6 -18 15q-141 92 -309 149q-47 16 -47 64q0 35 27 53q19 13 41 13q10 0 20 -3q106 -31 176 -67q47 -25 162 -99q92 -59 92 -131q0 -45 -41 -84q-115 -104 -397 -272q-19 -11 -38 -11t-36 11q-29 18 -29 55z " />
<glyph unicode="?" horiz-adv-x="665" d="M0 297q0 45 34 88t77 43q35 0 57 -24.5t22 -59.5q0 -47 -32.5 -90t-75.5 -43q-35 0 -58.5 25.5t-23.5 60.5zM102 588q0 55 125 164l230 192q125 113 125 182l-2 7q-14 10 -54 10q-80 0 -182 -39q51 -14 51 -66q0 -27 -19.5 -46t-45.5 -19q-59 0 -107 35q-55 39 -55 92 q0 82 143 135q113 39 215 39q80 0 131 -33q57 -41 58 -117q0 -104 -117 -225q-59 -63 -223 -192q-129 -100 -142 -140q-16 -45 -63 -45q-27 0 -47.5 19.5t-20.5 46.5z" />
<glyph unicode="@" horiz-adv-x="1282" d="M0 674q0 338 253 584.5t591 246.5q162 0 256 -80q100 -88 100 -245q0 -109 -45 -240q-41 -119 -108 -221q-94 -145 -181 -146q-47 0 -78 37q-66 -193 -210 -192q-84 0 -133.5 53t-49.5 137q0 80 45 199t101 180q78 92 194 92q86 0 117 -59q23 -41 22 -133v-43v-43 q0 -51 7 -80q72 72 129 214t57 245q0 195 -223 194q-285 0 -498 -209t-213 -491q0 -233 80 -315.5t303 -82.5q338 0 426 113q129 164 168 307q12 51 64 52q27 0 47 -20.5t20 -47.5q0 -55 -80 -195q-63 -113 -114 -178q-129 -164 -517 -164q-287 0 -405 115 q-125 119 -125 416zM528 610q0 -59 50 -59q57 0 90 119q23 86 22 170q0 49 49 63l-2 43h-4h-2q-78 0 -145 -131q-58 -115 -58 -205z" />
<glyph unicode="A" horiz-adv-x="1011" d="M0 233q0 78 141 390q131 291 199 393q25 35 59 35q127 238 256 237q90 0 119 -112q14 -55 14 -183q0 -88 -6 -207q29 23 60 43q43 31 61 31q27 0 46.5 -20.5t19.5 -46.5q0 -57 -199 -162q-6 -106 -33 -312q-12 -57 -65 -57q-29 0 -48.5 19.5t-19.5 48.5q0 39 10 114 q14 98 17 117q-330 -158 -378 -158h-3q-61 -141 -66 -149q-57 -106 -106 -107q-78 0 -78 86zM319 565q180 78 324 150q12 168 12 289q0 86 -12 139q-63 -57 -176 -273q-85 -160 -148 -305z" />
<glyph unicode="B" horiz-adv-x="731" d="M0 397q0 51 137 359q129 289 172 352q-47 -25 -63 -25q-27 0 -46.5 19.5t-19.5 48.5q0 37 35 57q229 139 381 140q121 0 121 -109q0 -131 -262 -383q229 -33 229 -160q0 -115 -179 -320.5t-292 -205.5q-102 0 -102 92q0 47 47 117t88 70q68 0 67 -68q0 -8 -4 -16 q68 59 140 153q88 113 102 174q-33 29 -139 33q-127 8 -138 10q-63 -133 -141 -340q-6 -33 -24.5 -46t-40.5 -13q-27 0 -47.5 18t-20.5 43zM385 975q164 164 195 242q-61 -8 -191 -68q49 -12 49 -66q0 -14 -20 -55z" />
<glyph unicode="C" horiz-adv-x="681" d="M0 580q0 63 20 133q37 131 203 307q176 190 299 190q84 0 109 -110q10 -49 10 -174q0 -111 -68 -111q-66 0 -65.5 99.5t-7.5 156.5q-90 -39 -208 -170t-145 -223q-14 -53 -14 -98q0 -127 178 -127q98 0 224 34q10 2 20 2q27 0 46.5 -19t19.5 -46q0 -45 -48 -64 q-106 -41 -258 -41q-139 0 -221 60q-94 68 -94 201z" />
<glyph unicode="D" horiz-adv-x="602" d="M-100 197q0 53 55 63q225 47 348 198.5t123 381.5q0 117 -51 198l-174 -428q-29 -66 -68 -190q-12 -66 -67 -66q-27 0 -46.5 19.5t-19.5 46.5q0 70 272 717q-39 20 -63 20h-10q-27 0 -46.5 19.5t-19.5 46.5q0 68 76 67q121 0 235.5 -124t114.5 -324q0 -152 -59 -310 q-53 -143 -217 -270q-170 -133 -316 -133q-27 0 -47 19.5t-20 48.5z" />
<glyph unicode="E" horiz-adv-x="487" d="M0 918q0 72 121 184t178 112q27 0 46.5 -19t19.5 -46q0 -35 -31 -57q-170 -115 -199 -168l103 -43q61 -27 61 -86q0 -47 -80 -169t-84 -173q6 -2 15 -2q43 0 124.5 27.5t98.5 27.5q27 0 46 -19.5t19 -48.5q0 -41 -41 -61q-129 -57 -243 -58q-152 0 -152 127q0 66 55 168 l95 158q-152 52 -152 146z" />
<glyph unicode="F" horiz-adv-x="714" d="M-20 246q0 23 16 43q37 51 78 246q-74 23 -74 75q0 27 19.5 46.5t46.5 19.5q16 0 34 -8q16 125 54 374q4 37 39 54q115 55 274 100q178 51 283 51q125 0 124 -73q0 -27 -19 -46.5t-46 -19.5q-10 0 -30.5 4t-30.5 4q-152 0 -467 -127q-20 -170 -45 -321q25 6 172 57 q109 39 174 39q74 0 73 -68q0 -31 -22.5 -50t-50.5 -15q-37 0 -174 -47q-150 -49 -199 -56q-74 -348 -162 -348q-29 0 -48 19.5t-19 46.5z" />
<glyph unicode="G" horiz-adv-x="837" d="M-4 289q0 51 18 100q55 147 348 498q311 375 424 375q27 0 46.5 -19.5t19.5 -46.5q0 -45 -47 -63q-109 -45 -389 -390q-287 -350 -287 -454q0 -57 51 -58q90 0 253 71t206 140q-55 -2 -172 -34.5t-131 -32.5q-29 0 -48.5 19.5t-19.5 45.5q0 45 45 64q172 70 326 69 q141 0 141 -106q0 -141 -239 -262q-209 -104 -365 -105q-78 0 -129 54.5t-51 134.5z" />
<glyph unicode="H" horiz-adv-x="833" d="M0 743q0 27 19.5 46.5t46.5 19.5q6 0 16 -3t14 -3q35 115 101 309q29 76 67 219q0 29 19.5 48.5t48.5 19.5q66 0 65 -68q0 -37 -69 -248l-92 -274q123 12 258 39q20 90 131 538q12 51 65 52q27 0 46.5 -19.5t19.5 -46.5q0 14 -119 -491q18 4 49 18q18 16 43 16 q27 0 46.5 -19t19.5 -48q0 -68 -189 -113l-47 -282q-47 -207 -121 -207q-29 0 -48 19.5t-19 45.5q0 23 20.5 47.5t44.5 167.5l29 181q-162 -27 -270 -35q-55 -197 -56 -310q0 -63 -67 -63q-66 0 -66 86q0 96 51 289q-57 14 -57 69zM682 895l4 4z" />
<glyph unicode="I" horiz-adv-x="843" d="M0 362q0 35 29.5 68t62.5 33q66 0 66 -66h16h35l149 346q86 203 129 353q-100 -8 -159 -9q-256 0 -256 117q0 27 20.5 47.5t46.5 20.5q35 0 56 -31q18 -20 127 -20q63 0 189 10t187 10q182 0 183 -90q0 -27 -19.5 -46.5t-46.5 -19.5q-23 0 -41 15q-16 8 -72 8 q-31 0 -77 -2q-33 -160 -267 -694q207 29 312 82q16 8 32 8q27 0 46.5 -19.5t19.5 -46.5q0 -37 -33 -57q-76 -49 -266 -84q-168 -31 -287 -31q-182 0 -182 98zM772 1102l2 -2z" />
<glyph unicode="J" horiz-adv-x="894" d="M0 504q0 236 82 235q27 0 46 -19.5t19 -45.5q0 -20 -8 -77.5t-8 -88.5q0 -61 12 -131q16 -96 44 -96h1h9q326 66 471 397q111 252 110 639q0 72 60 72q53 0 69 -48q6 -20 6 -92q0 -377 -168 -700q-207 -401 -555 -402q-190 1 -190 357z" />
<glyph unicode="K" horiz-adv-x="1019" d="M0 551q0 57 68 65q25 4 100 37q49 215 92 434q18 78 39 234q0 66 66 65q27 0 46 -19t19 -46q0 -106 -108 -596q152 74 342 180q272 154 303 201q27 41 61 41q27 0 46.5 -19.5t19.5 -46.5l-2 -14q-25 -121 -699 -453q29 -78 133 -178q111 -106 187 -117q63 -10 63 -69 q0 -63 -69 -64q-106 0 -248 131q-123 113 -178 228q-49 -201 -60 -234q-61 -184 -129 -184q-27 0 -46 19.5t-19 46.5q0 20 20 49q29 35 84 256q-39 -14 -61 -15q-70 0 -70 68z" />
<glyph unicode="L" horiz-adv-x="811" d="M0 397q0 115 104 340l164 328q20 41 62 41q27 0 46 -19.5t19 -46.5q0 -18 -132 -280t-132 -359q0 -16 6 -21t21 -5q102 0 296.5 50t233.5 50q27 0 46.5 -19.5t19.5 -45.5q0 -49 -49 -64q-334 -102 -545 -102q-160 -1 -160 153z" />
<glyph unicode="M" horiz-adv-x="1177" d="M0 336q0 18 110.5 304t120.5 370q8 61 72 61q61 0 62 -70q0 -23 -19 -90l109 176q18 31 55 31q27 0 47.5 -19.5t20.5 -45.5q0 -6 -82 -218t-82 -313q0 -29 8 -41h14q115 0 297 172q168 162 211 285q16 47 64 47q27 0 46 -19.5t19 -45.5q0 -80 -34.5 -250t-34.5 -258 q0 -70 12 -93l2 3q25 20 49 20q27 0 47.5 -19.5t20.5 -46.5q0 -39 -41 -66.5t-82 -27.5q-139 0 -140 244q0 84 15 195q-256 -272 -455 -273q-149 0 -149 176q0 18 2 37l-162 -260q-20 -31 -57 -31q-27 0 -46.5 19.5t-19.5 46.5z" />
<glyph unicode="N" horiz-adv-x="958" d="M0 412q0 47 85 349t112 355q20 43 61 43q61 0 68 -63q23 -248 45 -353q59 -256 178 -256q25 0 57 13q82 31 166 329q18 61 90 388q12 55 66 55q27 0 47 -19.5t20 -46.5q0 -84 -84 -375q-59 -215 -110 -305q-98 -172 -252 -172q-236 0 -322 418l-55 -182 q-37 -125 -39 -180q-4 -66 -67 -66q-27 0 -46.5 19.5t-19.5 48.5z" />
<glyph unicode="O" horiz-adv-x="743" d="M0 510q0 141 98 367q111 254 221 253q33 0 51.5 -23.5t14.5 -51.5q20 4 47 4q131 0 201 -88q66 -80 65 -215q0 -186 -141 -328.5t-326 -142.5q-231 0 -231 225zM133 510q0 -53 20.5 -73.5t75.5 -20.5q131 0 233.5 104.5t102.5 233.5q0 172 -135 172h-6q-29 -27 -119 -168 q-20 -33 -57 -33q-39 0 -58 35q-57 -146 -57 -250z" />
<glyph unicode="P" horiz-adv-x="544" d="M-82 266q0 20 14 41q76 109 117 258q23 88 49 279q16 121 25 157q20 100 51 148q100 162 277 162q127 0 200 -103q63 -90 64 -225q0 -129 -64 -207q-68 -86 -194 -86q-33 0 -96.5 12.5t-94.5 12.5q-4 0 -11 -2t-11 -2q-16 0 -31 6q-53 -348 -176 -492q-23 -25 -53 -24 q-27 0 -46.5 19t-19.5 46zM231 844q16 4 37 4q31 0 94.5 -13.5t96.5 -13.5q123 0 123 164q0 76 -29 127q-35 68 -102 68q-121 0 -172 -119q-25 -55 -48 -217z" />
<glyph unicode="Q" horiz-adv-x="733" d="M0 532q0 193 66 347q45 109 180 307q18 23 45 67q18 41 61 41q27 0 46.5 -19.5t19.5 -45.5q0 -25 -90 -158q61 37 133 37q119 0 193.5 -73.5t74.5 -192.5q0 -158 -113 -314q0 -43 -4 -120q-4 -84 -4 -123q0 -76 8 -88q14 -29 15 -43q0 -27 -19.5 -46.5t-46.5 -19.5 q-90 0 -90 199q0 4 4 102q-131 -96 -276 -96q-203 -1 -203 239zM133 530q0 -61 8 -77q12 -27 64 -27q145 0 268 137l-170 109q-113 76 -123 145q-47 -111 -47 -287zM313 836q14 -23 109 -82q113 -72 127 -82q47 92 47 172q0 131 -135 131q-51 0 -93.5 -42t-54.5 -97z" />
<glyph unicode="R" horiz-adv-x="823" d="M0 354q0 10 4 23l113 332q86 264 86 321l2 -4l-2 8q-2 27 18.5 47.5t48.5 20.5q27 0 46.5 -20.5t19.5 -47.5q0 -51 -53 -233q207 283 311 282q51 0 95 -46t44 -97q0 -145 -323 -307q133 -104 225 -105q14 0 38.5 8.5t37.5 8.5q29 0 48 -19.5t19 -48.5q0 -82 -143 -82 q-166 0 -354 174l-158 -250q-20 -31 -57 -30q-27 0 -46.5 19t-19.5 46zM457 811q139 86 145 127l-12 8q-41 -20 -133 -135z" />
<glyph unicode="S" horiz-adv-x="714" d="M0 469q0 27 19.5 46.5t46.5 19.5q20 0 36 -12l31 -21q63 -35 170 -35q233 0 234 186q0 16 -2 31q-4 43 -148.5 92t-144.5 117q0 80 176 162q156 74 246 73q70 0 69 -67q0 -29 -21.5 -48.5t-52.5 -17.5q-78 -4 -239 -90q127 -41 176 -82q74 -59 74 -170q0 -156 -111 -241 q-100 -78 -258 -78q-86 0 -178 28q-123 41 -123 107zM655 995h4h3h-7z" />
<glyph unicode="T" horiz-adv-x="442" d="M0 922q0 29 21.5 48t50.5 17q47 2 125 21l122 32q25 51 31 62q23 33 58 33q59 0 65 -62q221 47 303 47q113 0 113 -76q0 -27 -19.5 -46t-48.5 -19q-8 0 -22.5 4t-24.5 4q-74 0 -360 -61q-180 -418 -181 -486q0 -25 -19 -43t-46 -18q-68 0 -68 70q0 74 154 440 q-152 -33 -184 -33q-70 0 -70 66zM72 987h6h-6z" />
<glyph unicode="U" horiz-adv-x="542" d="M0 557q0 76 37 214t76 204q23 37 59 37q27 0 46.5 -19.5t19.5 -46.5q0 -14 -7 -31q-100 -225 -100 -362q0 -20 4 -31q82 0 141 113q33 66 78 219q37 129 57.5 145.5t43.5 16.5q27 0 47 -19.5t20 -46.5v2q-3 0 -30 -100q-51 -199 -111 -299q-96 -164 -246 -164 q-135 0 -135 168z" />
<glyph unicode="V" horiz-adv-x="557" d="M0 1047q0 27 19.5 46t46.5 19q45 0 63 -45q10 -27 21 -244l12 -280l168 278q133 217 162 234q20 14 38 14q27 0 46.5 -19.5t19.5 -48.5q0 -31 -23 -49q-31 -33 -221 -358q-160 -272 -229 -272q-49 0 -69.5 48t-37.5 421q0 9 1 19q0 80 -15 218q-2 13 -2 19zM569 950l4 2z " />
<glyph unicode="W" horiz-adv-x="755" d="M0 975q0 27 19.5 46t46.5 19q45 0 63 -43q12 -31 21 -204q4 -113 10 -228l94 213q78 154 141 154q76 0 92 -144q4 -102 7 -204l104 227q80 166 127 178q8 4 18 4q27 0 46.5 -20.5t19.5 -47t-31 -55.5q-20 -20 -76 -151q-63 -156 -100 -217q-66 -111 -129 -111 q-80 0 -102 115q-10 41 -15 174l-90 -205q-76 -150 -133 -151h-10q-63 0 -88 139q-14 84 -19 276q-4 180 -12 215q-4 13 -4 21z" />
<glyph unicode="X" horiz-adv-x="632" d="M0 514q0 33 178 201q-57 127 -162 315q-16 23 -16 45q0 27 19.5 46.5t46.5 19.5q29 0 48 -19.5t165 -312.5q180 160 243 160q29 0 49.5 -19.5t20.5 -46.5q0 -66 -64 -67q-43 -18 -186 -150q141 -276 184 -296.5t43 -61.5q0 -27 -19.5 -46.5t-45.5 -19.5q-90 0 -264 330 l-82 -86q-63 -59 -92 -60q-27 0 -46.5 19.5t-19.5 48.5z" />
<glyph unicode="Y" horiz-adv-x="673" d="M0 633q0 72 45 219t88 203q25 29 55 28q27 0 47.5 -19.5t20.5 -45.5l-62 -155q-62 -155 -63 -230q0 -23 6 -33q16 -8 35 -8q121 0 336 305q51 72 88 72q27 0 47.5 -20.5t18.5 -45.5v-12q-2 -8 -29 -162q-45 -244 -72 -367q-39 -174 -149 -284q-121 -123 -291 -123 q-104 0 -105 74q0 57 105 57q186 0 274 201q35 80 86 358q-166 -186 -309 -186q-172 0 -172 174z" />
<glyph unicode="Z" horiz-adv-x="798" d="M-16 559q0 55 57 66q74 4 219 14q84 90 133 147q94 113 103 158q-4 2 -11 2q-51 0 -179 -63.5t-163 -63.5q-29 0 -48 20.5t-19 47.5q0 61 61 65h-2h8h-6q12 4 74 33q186 92 276 92q57 0 100.5 -34.5t43.5 -90.5q0 -96 -176 -297q23 2 67 11q-2 0 -6 -2l8 4l-2 -2 q14 8 31 8q27 0 47.5 -19.5t20.5 -46.5q0 -63 -127 -84q-4 -2 -172 -14l-138 -145q86 0 236 14q178 14 227 33l-4 -4l6 4h-2q14 6 31 6q27 0 46 -19.5t19 -46.5q0 -37 -32 -57q-41 -27 -252 -45q-170 -16 -271 -17q-84 0 -116 9q-72 18 -72 77q0 43 127 179l-68 -4h-10 q-27 -2 -46 18t-19 47zM516 664q6 2 8 4z" />
<glyph unicode="[" horiz-adv-x="4988" d="M0 586q0 66 27 119q106 217 327 417q254 227 461 228q201 0 359 -197l239 -369q141 -199 303 -198q168 0 350 133q119 86 277 262q188 211 446 211q121 0 207 -53q70 -45 150 -152q57 -72 92 -235q6 -39 31 -105q33 -55 157 -55q231 0 445 194q190 172 280 410 q25 63 37 88q23 49 49 82q55 70 170 107q98 33 203 32q123 0 203 -55q90 -61 90 -180q0 -16 -8 -50t-8 -42q0 -18 67.5 -148.5t87.5 -148.5q29 -18 29 -54q0 -27 -20.5 -47t-47.5 -20q-53 0 -123 125l-12 -49q43 -16 43 -62q0 -68 -76 -67q-102 0 -102 116q0 49 20 107 q25 72 62 80l-29 61q-47 -23 -132 -33t-118 -22q-63 -27 -104 -96q-221 -362 -434 -549q-291 -254 -635 -254q-213 0 -326 125q-70 78 -117 235q-41 135 -69 146q-12 4 -29 4q-78 0 -256 -142q-252 -197 -364 -260q-246 -141 -482 -141q-240 0 -424 166q-45 39 -254 303 q-129 162 -238 162h-3h-10q-47 -2 -80 -39q-4 -6 -49 -78q-100 -158 -160 -223q-115 -125 -226 -125q-119 0 -200 110q-76 103 -76 226zM131 586q0 -66 41 -131q43 -72 104 -72q92 0 273 285q59 98 92 127q55 49 143 51l17 2h4q158 0 299 -160l246 -305q162 -166 370 -166 q217 0 447 141q37 20 354 261q186 141 299 141q135 0 189 -133l90 -244q78 -133 264 -133q305 0 567 237q184 166 387 500q57 94 135 135q63 33 185 49q74 10 94 21q41 20 41 78q0 102 -160 102q-72 0 -145 -20q-92 -27 -127 -69t-72 -140q-39 -109 -63 -148 q-340 -535 -779 -534q-174 0 -243 78q-43 47 -71 181t-75 191q-66 82 -104 109q-55 39 -144 39q-199 0 -348 -166q-178 -199 -319 -297q-203 -141 -406 -141q-209 0 -368 196l-240 369q-139 199 -295 199q-252 0 -567 -418q-115 -152 -115 -215zM4508 1272q0 27 19.5 46 t46 19t46 -19.5t19.5 -45.5q0 -29 -19.5 -48.5t-46 -19.5t-46 19.5t-19.5 48.5z" />
<glyph unicode="\" horiz-adv-x="886" d="M-2 1436q0 27 19.5 46t45.5 19q47 0 66 -49q27 -78 219 -365l246 -370q178 -283 217 -385q31 -88 31 -154q0 -86 -68 -86q-27 0 -46 19.5t-19 48.5v10q10 86 -174 387q-31 53 -349 537q-188 291 -188 342z" />
<glyph unicode="]" horiz-adv-x="3420" d="M0 704.5q0 53.5 35 98.5t86 53q0 49 104 160q82 86 146 131q-133 145 -133 213q0 70 65 70q20 0 37 -13q-2 90 68 90q61 0 61 -90q0 -57 92 -162q193 82 418 82q418 0 651 -194q66 -53 113 -125q57 -84 57 -154q203 -8 299 -100l115 -168q66 -88 201 -88q86 0 256 28.5 t256 28.5q55 0 163.5 -28.5t161.5 -28.5q8 0 20.5 5t28.5 5q27 0 46.5 -19.5t19.5 -45.5q0 -74 -115 -74q-57 0 -164.5 28.5t-160.5 28.5q-86 0 -256 -29.5t-258 -29.5q-133 0 -215 57q-70 49 -146 170q-16 27 -49 76q-43 49 -227 55q-84 -203 -412 -301q8 -18 8 -98 q0 -209 -94 -209q-25 0 -44.5 19.5t-19.5 46.5q0 18 17 45q10 16 10 106q0 62 -1 62l-1 -3l-25 -4q0 -25 -43 -98q-37 -61 -60.5 -88t-53.5 -27q-27 0 -45.5 19.5t-18.5 46.5q0 10 70 125q-100 -9 -200 -9l-66 1q0 -319 -103 -320q-27 0 -46 19.5t-19 46.5q0 18 16 43 q23 33 23 221l-56 8q-4 -8 -37 -80q-25 -57 -24.5 -82.5t-19 -45t-46 -19.5t-46 19.5t-19.5 45.5q0 59 61 187q-223 57 -311 168q-20 -6 -41 -7q-53 0 -91 39t-38 92.5zM221 801q31 -64 31 -112v-11l41 -41q-16 18 -17 47q0 61 70 61q66 0 200 -6t202.5 -6t68.5 -59 q0 -49 -37 -64q-20 -8 -75 -8q-360 0 -398 25q164 -131 561 -131q219 0 422 53q274 72 352 211q-12 16 -12 33q0 47 39 63v10q0 39 -51 105q-176 231 -614 237h-25h-10q-187 0 -355 -71q-12 -20 -34 -29l-84 -33q-176 -111 -252 -250zM270 817q0 53 111 84q29 6 223 39 q133 20 166 51q20 27 53 27q27 0 46.5 -18.5t19.5 -45.5q0 -63 -113 -104q-70 -25 -227 -51q-150 -25 -178 -37q-16 -10 -35 -10q-27 0 -46.5 19t-19.5 46zM369 762h2l2 2zM770 989v2v-2z" />
<glyph unicode="^" horiz-adv-x="1112" d="M0 1047q0 37 35 59q47 27 262 266q190 211 250 211q31 0 53.5 -25.5t17.5 -58.5q2 -68 250 -231q276 -182 308 -226q14 -20 14 -41q0 -29 -19.5 -48t-46 -19t-51.5 24q-43 45 -53 53.5t-59 39.5q-174 113 -240 161q-156 113 -205 195l-227 -242q-178 -184 -223 -184 q-27 0 -46.5 19.5t-19.5 46.5z" />
<glyph unicode="_" horiz-adv-x="559" d="M0 -29q0 29 19.5 47.5t46.5 18.5q10 0 18 -2q10 -2 18 0q219 20 324 22h8q164 0 164 -82q0 -27 -19.5 -46t-46.5 -19q-18 0 -34.5 7t-65.5 7q-80 0 -164 -11t-164 -11q-104 -1 -104 69zM496 -80l2 -2h2z" />
<glyph unicode="`" horiz-adv-x="399" d="M-6 1526q0 25 20.5 44t46.5 19q16 0 33 -8q53 -27 103 -115l75 -145q18 -29 21 -33l26 -22q29 -18 29 -52q0 -18 -10 -38q-14 -29 -53 -29q-66 0 -133 133q-78 156 -117 182q-41 19 -41 64z" />
<glyph unicode="a" horiz-adv-x="481" d="M-2 381q0 92 92 231q98 154 189 154q61 0 100 -59q33 -51 33 -117t-52 -76l2 -10q0 -12 -4 -37t-4 -37q0 -53 26 -83t26 -54q0 -27 -18.5 -47.5t-43.5 -20.5q-61 0 -98 101q-63 -59 -129 -60q-119 0 -119 115zM125 399q41 12 90 89t74 81v25q0 23 -13 37 q-35 -18 -88 -101.5t-63 -130.5z" />
<glyph unicode="b" horiz-adv-x="516" d="M0 326q0 27 18.5 46t42.5 19q41 0 58 -39l6 -8q41 25 111 107q66 74 92 124q-55 -31 -176 -135q-18 -14 -41 -14q-25 0 -43.5 19.5t-18.5 46.5q0 18 12 38q33 59 91 218l81 227q16 41 58 41q27 0 44 -19.5t17 -46.5q0 -18 -92 -264q68 39 115 39q41 0 66.5 -30.5 t25.5 -73.5q0 -90 -131 -251t-213 -161q-45 0 -84 37t-39 80z" />
<glyph unicode="c" horiz-adv-x="462" d="M0 395q0 100 93 217t190 117q80 0 120 -80q8 -14 9 -33q0 -27 -17.5 -46t-44.5 -19q-29 0 -47 23.5t-20 23.5q-43 0 -101.5 -79t-58.5 -124l2 -2q18 -31 55 -31q31 0 72 20.5t55 20.5q25 0 43.5 -19t18.5 -46q0 -49 -72 -82q-61 -27 -117 -27q-72 0 -126 48t-54 118z" />
<glyph unicode="d" horiz-adv-x="600" d="M0 319q0 80 106.5 207t184.5 127q59 0 69 -57q20 117 58 215q57 160 123 160q76 0 75 -109q0 -129 -139 -325q-10 -59 -10 -107q0 -45 18.5 -89t18.5 -56q0 -27 -17.5 -46.5t-44.5 -19.5q-78 0 -94 160q-160 -168 -252 -168q-41 0 -68.5 32.5t-27.5 75.5zM145 369 q2 0 5 -1q31 0 75 54l76 96h-10q-119 -36 -146 -149z" />
<glyph unicode="e" horiz-adv-x="475" d="M0 502q0 123 97.5 211t219.5 88q57 0 96.5 -29t39.5 -82q0 -106 -113 -172q-90 -53 -209 -65q35 -139 135 -140q6 0 19.5 2t19.5 2q25 0 43.5 -19t18.5 -46q0 -72 -101 -72q-117 0 -194 105q-72 94 -72 217zM156 590q125 25 166 78h-5q-97 0 -161 -78z" />
<glyph unicode="f" horiz-adv-x="514" d="M0 242q0 33 25 53q49 43 116 180q-72 12 -90 21q-51 18 -51 65q0 27 18.5 46.5t42.5 19.5q12 0 30 -7.5t102 -17.5q25 63 36 137q20 100 88 185q78 96 172 96q27 0 44.5 -20.5t17.5 -47.5q0 -39 -43 -59q-74 -35 -86 -45q-53 -43 -70 -133q-12 -68 -30 -125q6 0 18 2 t20 2q25 0 43.5 -19.5t18.5 -46.5q0 -53 -55 -65q-16 -4 -47 -4q-20 0 -48 2q-127 -285 -211 -285q-25 0 -43 19.5t-18 46.5z" />
<glyph unicode="g" horiz-adv-x="468" d="M-152 -72q0 45 29 103q33 66 72 65q27 0 44 -19.5t17 -45.5q0 -18 -12 -47q-12 -20 -23 -43q16 -4 41 -4q57 0 127 151q47 104 72 203q-43 -23 -82 -23q-51 0 -92 40t-41 93q0 92 119 191q115 92 209 92q98 0 98 -76q0 -68 -61 -67q-18 0 -33 10l-6 2q-41 0 -113 -53.5 t-88 -93.5q6 -4 12 -5q20 0 70.5 44t81.5 44q70 0 69 -94q0 -156 -100 -360q-113 -231 -242 -232q-168 0 -168 125z" />
<glyph unicode="h" horiz-adv-x="550" d="M0 379q0 72 119 341t164 290q14 8 28 8q25 0 43.5 -20.5t18.5 -47t-25 -51.5q-49 -57 -184 -401q180 123 227 123q82 0 82 -113q0 -23 -5 -64t-5 -63q8 -16 8 -35q0 -27 -17.5 -46t-43.5 -19q-72 0 -72 102q0 23 8 80l-139 -94q-100 -66 -137 -66q-70 0 -70 76z" />
<glyph unicode="i" horiz-adv-x="342" d="M0 369q0 51 36 144t40 136q6 63 65 64q29 0 48.5 -19.5t19.5 -46.5q0 -49 -37 -145t-37 -148q0 -27 -19.5 -46t-45.5 -19q-70 0 -70 80zM162 840q0 27 19.5 46t45.5 19q31 0 52 -24q12 4 22 4q27 0 46.5 -19.5t19.5 -46.5q0 -33 -29 -58.5t-62 -25.5q-39 0 -76.5 33 t-37.5 72z" />
<glyph unicode="j" horiz-adv-x="256" d="M-422 20q0 63 70 64q33 0 55 -43q33 -70 41 -80q37 -41 104 -41q59 0 100.5 51.5t61.5 288.5q20 256 35 291q18 43 64 43q27 0 46 -19.5t19 -46.5q0 -10 -4 -23t-14 -128q-27 -291 -52 -373q-68 -217 -256 -217q-98 0 -184 69.5t-86 163.5zM18 821q0 84 70 84 q27 0 46.5 -19.5t19.5 -47.5q59 -4 59 -66q0 -68 -80 -67q-49 0 -82 33.5t-33 82.5z" />
<glyph unicode="k" horiz-adv-x="536" d="M-12 348q0 8 215 561q16 43 63 43q27 0 46.5 -19.5t19.5 -47.5q0 -12 -62 -176q129 45 148 45q27 0 46 -20.5t19 -47.5q0 -47 -45 -63q-72 -20 -211 -72q96 -70 172 -70q66 0 66 -67q0 -66 -74 -66q-104 0 -227 86q-37 -90 -39 -94q-31 -57 -72 -57q-27 0 -46 19t-19 46z " />
<glyph unicode="l" horiz-adv-x="342" d="M0 358q0 76 80 269q84 207 92 280q8 57 61 58q74 0 72 -62v-12q-8 -61 -89 -267t-83 -266v4v-12q0 -61 -72 -61q-27 0 -44 21t-17 48z" />
<glyph unicode="m" horiz-adv-x="724" d="M-4 399q0 57 67 158q74 113 80 137q12 59 66 60q63 0 65 -64q33 18 64 19q84 0 84 -92v-13q76 66 123 66q74 0 98 -140l29 -198q8 -14 8 -31q0 -27 -20.5 -46t-47.5 -19q-59 0 -80 110l-20 162q-53 -49 -174 -182q-20 -25 -49 -25t-48.5 20.5t-19.5 47.5q0 18 37 127 l-86 -105q-66 -70 -102 -69q-74 -1 -74 77zM670 336l2 -4z" />
<glyph unicode="n" horiz-adv-x="587" d="M-6 362q0 16 74.5 159t94 165.5t50.5 22.5q27 0 46.5 -19.5t19.5 -48.5q0 -20 -13 -37q119 78 180 78q98 0 99 -121q0 -76 -103 -309q-14 -47 -63 -47q-27 0 -47.5 19.5t-20.5 45.5q0 16 46 122t53 143q-96 -47 -308 -222q-18 -16 -43 -16q-27 0 -46 19t-19 46z" />
<glyph unicode="o" horiz-adv-x="499" d="M-6 383q0 66 125 200t170 134q61 0 110 -109q41 -92 41 -162q0 -94 -64.5 -145t-162.5 -51q-76 0 -139 29q-80 36 -80 104zM135 397q35 -14 78 -14q96 0 96 66q0 41 -30 100q-55 -51 -76 -72q-45 -43 -68 -80z" />
<glyph unicode="p" horiz-adv-x="514" d="M-143 -12q0 23 12 39q25 45 84 233q63 205 102 291q63 143 127 145l11 2h3q70 0 163 -78q95 -81 95.5 -151t-102.5 -133q-94 -59 -168 -60q-45 0 -80 21l-61 -186q-51 -145 -71.5 -167t-49.5 -22q-27 0 -46 19.5t-19 46.5zM-131 27l4 4zM152 428q27 -18 36 -18 q57 0 127 65q-41 55 -106 84q-20 -35 -57 -131z" />
<glyph unicode="q" horiz-adv-x="458" d="M-33 -80q0 63 72 221q2 2 106 213h-14h-5q-46 0 -85 34q-41 36 -41 85q0 78 94 149.5t172 71.5q47 0 78 -29.5t31 -74.5q0 -63 -82 -236q119 -57 119 -190q0 -121 -76 -256q-86 -152 -197 -152q-66 0 -119 51.5t-53 112.5zM100 -76q14 -35 37 -35q45 0 96 113 q45 102 46 162q0 51 -46 72l-75 -158q-58 -121 -58 -154zM143 489q31 6 86 48l4 16q-55 -25 -90 -64z" />
<glyph unicode="r" horiz-adv-x="610" d="M0 309.5q0 26.5 119 284.5q18 39 59 39q8 0 19 -2q133 127 209 127q70 0 106 -68q31 -55 31 -133q0 -70 -62 -70q-55 0 -65 50l-17 88q-70 -23 -157 -154l-119 -195q-18 -33 -57 -32q-27 0 -46.5 19.5t-19.5 46z" />
<glyph unicode="s" horiz-adv-x="604" d="M0 309q0 27 19.5 46.5t46.5 19.5q14 0 35.5 -10.5t35.5 -10.5q43 0 92.5 26t67.5 60l-100 52q-53 35 -54 94q0 80 55.5 130t133.5 50q63 0 133 -27q92 -33 92 -86q0 -27 -19.5 -46t-48.5 -19q-12 0 -66 22.5t-91 22.5q-43 0 -53 -39l102 -49q53 -35 53 -94 q0 -92 -104 -162q-94 -66 -191 -66q-49 0 -90 19q-49 24 -49 67z" />
<glyph unicode="t" horiz-adv-x="700" d="M-6 591.5q0 63.5 63 70.5q80 4 238 14l104 250q82 203 84 241q6 63 68 64q27 0 46 -19.5t19 -46.5q0 -57 -172 -473q82 8 201 37q20 25 51 25q27 0 46.5 -19.5t19.5 -46.5q0 -74 -162 -110q-55 -12 -213 -27q-43 -106 -88 -256v-6q2 -25 -18.5 -45.5t-49.5 -20.5 q-66 0 -65 72q0 53 74 244q-143 -10 -177 -11q-69 0 -69 63.5z" />
<glyph unicode="u" horiz-adv-x="575" d="M0 410q0 66 51 163t55 129q6 66 66 66q27 0 47.5 -19.5t20.5 -46.5q0 -49 -53.5 -152.5t-53.5 -139.5q0 -43 14 -60q55 14 152.5 138t97.5 188q0 27 19.5 46t48.5 19q27 0 46 -19.5t19 -45.5q0 -113 -137 -283q-141 -176 -248 -176q-72 0 -112 64q-33 53 -33 129z" />
<glyph unicode="v" horiz-adv-x="520" d="M0 686q0 27 19.5 46.5t46.5 19.5q89 0 89 -273q0 -28 -1 -59q186 221 190 293q6 66 68 65q27 0 46 -19.5t19 -45.5q0 -86 -160.5 -303t-234.5 -217q-70 0 -70 69q0 37 5.5 110.5t5.5 110.5q0 119 -19 183q-4 10 -4 20z" />
<glyph unicode="w" horiz-adv-x="849" d="M-4 293q0 47 45 168q59 156 65 178q-55 10 -55 66q0 37 35 57q29 18 68 18q90 0 90 -102q0 -55 -43 -172q84 106 88 110q66 76 110 76q70 0 93 -117l20 -172q61 72 168 314q18 41 61 41q27 0 46.5 -19.5t19.5 -46.5q0 -12 -4 -26q-53 -139 -119 -244q-102 -168 -186 -168 q-76 0 -107 92q-16 43 -26 154l-134 -172q-102 -121 -155 -121q-80 0 -80 86z" />
<glyph unicode="x" horiz-adv-x="598" d="M0 319q0 88 205 220q-59 111 -60 147q0 27 19.5 46.5t46.5 19.5q39 0 68 -56q20 -45 38 -90q127 66 172 66q27 0 47.5 -19.5t20.5 -46.5q0 -41 -65 -69l-107 -45l68 -103q51 -82 51 -100q0 -29 -19.5 -48.5t-48.5 -19.5q-33 0 -53 29q-37 49 -113 174q-47 -31 -129 -100 q43 -23 43 -62q0 -29 -19.5 -48t-45.5 -19q-43 0 -81 40.5t-38 83.5z" />
<glyph unicode="y" horiz-adv-x="514" d="M-252 -356q0 29 19.5 48t46.5 19q20 0 38.5 -12t16.5 -12q74 0 397 649q-121 -72 -174 -72q-92 0 -92 109q0 80 57 229q66 170 129 170q27 0 46.5 -19.5t19.5 -45.5q0 -20 -14 -43q-68 -96 -101 -248l121 69q86 49 121 50q31 0 53.5 -21.5t22.5 -52.5q0 -59 -146 -332 l-196 -356q-117 -219 -244 -219q-41 0 -78 24q-43 27 -43 66z" />
<glyph unicode="z" horiz-adv-x="526" d="M0 604q0 27 19.5 46.5t46.5 19.5q14 0 28 -6q39 6 127 51q82 41 133 41q35 0 61.5 -23.5t26.5 -58.5q0 -47 -71 -150l-107 -141q215 -29 215 -188q0 -20 -2 -37q-16 -111 -115 -267q-111 -176 -202 -176q-29 0 -48.5 19.5t-19.5 46.5q0 51 49 63q61 31 133 155t72 196 q0 39 -60 50l-120 21q-61 20 -62 78q0 41 56 123l86 115q-106 -51 -158 -52q-88 0 -88 74z" />
<glyph unicode="{" horiz-adv-x="1683" d="M0 1135q0 27 19.5 46t46.5 19q18 0 43 -14q68 -43 493 -53q20 131 92 131q18 0 144 -31l64 125q44 84 157 133q100 45 207 45q213 0 276 -244q10 0 221 -98q39 -16 39 -64q0 -33 -30 -53l-117 -76q-84 -51 -115 -51h-4q-76 -401 -365 -520l23 -57q8 2 18 2q12 0 197 -76 q41 -16 41 -61q0 -27 -19.5 -46.5t-48.5 -19.5q-12 0 -114 41q2 -4 20 -25q10 -14 10 -34q0 -27 -19 -46.5t-46 -19.5q-31 0 -53 23q-16 -59 -66 -60q-29 0 -48 20.5t-19 47.5q0 8 4 16q-20 -31 -55 -31t-72 50q-20 -27 -54 -27q-57 0 -71 76q-43 -49 -74 -49 q-27 0 -46.5 19.5t-19.5 45.5q0 29 39 76l60 65q18 20 47 23l4 14q-268 41 -449 164q-80 57 -198 252q-96 156 -156 293q-6 15 -6 29zM193 1030q160 -301 241 -356q174 -119 416 -148q20 25 51 25q37 0 57 -31q240 6 363 217q102 176 102 439q0 68 -24 133q-33 82 -88 92 q-18 2 -45 2q-68 0 -138 -27q-84 -33 -110 -82l-45 -92q155 -33 197 -33h8h12q27 0 46 -19t19 -46q0 -68 -82 -68q-61 0 -233 39q55 -37 143 -78h4q27 2 46.5 -18.5t19.5 -46.5q0 -68 -68 -68q-27 0 -67 17q20 -18 20 -50q0 -63 -67 -63q-127 0 -242 182q8 -94 55 -123.5 t47 -62.5q0 -27 -19 -47.5t-48 -20.5q-90 0 -135 115q-35 84 -35 188q-235 6 -401 31zM907 938q33 -31 70 -37q-31 14 -70 37zM934 346q25 -12 76 -78.5t51 -97.5q6 35 35 94q-25 55 -52 131q-49 -8 -102 -8zM1233 1219q0 35 20.5 63.5t55 28.5t60.5 -36t26 -73 q0 -33 -23.5 -55.5t-56.5 -22.5q-37 0 -59.5 29t-22.5 66zM1554 1100l41 26l-39 19z" />
<glyph unicode="|" horiz-adv-x="323" d="M-4 104q0 25 20 48q59 61 95 413q6 61 43 637q25 346 55 387q20 27 53 27q23 0 39 -12q27 -20 27 -52q0 -13 -4 -28q-27 -78 -45 -422q-14 -295 -27 -445q-27 -334 -57 -438q-29 -88 -68 -141q-33 -41 -68 -41q-27 0 -45 20t-18 47z" />
<glyph unicode="}" horiz-adv-x="2340" d="M0 799q0 125 178 125q125 0 184 -45q25 -20 121 -148l58 162q47 119 69 151q111 152 148 193q106 113 198 113q119 0 166 -166q25 -131 47 -264l138 256q98 174 184 174q68 0 135 -54q115 -90 146 -254l28 -297l150 97q106 63 151 63q78 0 131 -31q66 -37 66 -106 q0 -162 -356 -348q2 -18 -22 -34.5t-44 -16.5q-10 0 -29 6q-418 -193 -770 -193q-287 0 -606 154q-35 -74 -80 -74q-27 0 -46 19.5t-19 48.5q0 6 28 67q-354 207 -354 402zM133 788q20 -117 273 -266l26 72q-29 14 -84 100q-53 80 -84 88q-39 8 -88 9q-25 -1 -43 -3z M522 459q301 -143 557 -144q293 0 658 154q-47 82 -66 240q-4 23 -20 252q-4 74 -45 153q-49 98 -111 105q-37 -33 -98 -158q-74 -152 -105 -199q-66 -96 -131 -96q-80 0 -117 117q-14 41 -40 217q-16 119 -50 119q-59 0 -215 -224q-45 -63 -116 -256zM1823 606 q14 -53 35 -82q272 137 307 238q-23 10 -60 10q-14 0 -133 -74q-135 -86 -149 -92z" />
<glyph unicode="~" horiz-adv-x="980" d="M0 1065q0 33 35 57q10 8 80 105q98 137 143 184q109 119 186 119q33 0 64 -19q66 -41 98 -161q47 -172 58 -193q49 -94 163 -94q80 0 93 82q8 57 65 57q27 0 47.5 -19.5t20.5 -45.5q0 -84 -71 -145.5t-155 -61.5q-160 0 -241 104q-53 68 -88 209q-33 131 -56 152 q-53 -14 -190 -209q-133 -186 -186 -187q-27 0 -46.5 19.5t-19.5 46.5z" />
<glyph unicode="&#xa1;" horiz-adv-x="444" d="M0 270q0 33 72 228l90 243q51 152 51 248q0 29 19.5 48.5t46.5 19.5q70 0 69 -88q0 -111 -151 -518q-31 -78 -64 -183q-6 -68 -65 -67q-29 0 -48.5 20t-19.5 49zM240 1257.5q0 51.5 36.5 87t88.5 35.5q47 0 79.5 -38.5t32.5 -88.5q0 -55 -40 -93t-95 -38q-47 0 -76 45 q-26 39 -26 90.5zM346 1253q8 -6 14 -6h2q-8 4 -16 6z" />
<glyph unicode="&#xa2;" horiz-adv-x="577" d="M0 707q0 111 94 178q84 61 199 61q20 0 41 -4l37 92q27 55 65 56q68 0 68 -68q0 -27 -41 -113q74 -31 74 -78q0 -27 -20.5 -46t-47.5 -19q-4 0 -63 22l-54 -110q43 27 58 27q27 0 47 -19.5t20 -46.5q0 -51 -76 -82q-55 -23 -118 -27q-33 -72 -50 -112q-35 -86 -36 -113 q2 -6 2 -10q0 -29 -20.5 -48.5t-47.5 -19.5q-66 0 -65 76q0 63 77 242q-143 41 -143 162zM133 707q0 -27 66 -41l71 147q-49 -2 -90 -29q-47 -30 -47 -77zM197 303v2v4v-6z" />
<glyph unicode="&#xa3;" horiz-adv-x="948" d="M0 518q0 90 97.5 183.5t187.5 93.5q76 0 135 -127q35 43 74 96q-100 12 -101 78q0 27 19.5 46t46.5 19q12 0 37.5 -7t40.5 -7q23 0 47 4l141 209q115 154 182 154q109 0 109 -168q0 -135 -115 -222q-92 -70 -239 -96q-106 -158 -185 -246q27 -72 78 -166q51 -14 51 -69 q0 -61 -71 -62q-82 0 -160 197q-98 -80 -182 -80q-74 0 -133.5 49t-59.5 121zM133 520q0 -16 21.5 -27.5t38.5 -11.5q51 0 131 78q-14 37 -52 100q-37 -12 -88 -59t-51 -80zM778 948q104 55 105 144q-35 -44 -105 -144z" />
<glyph unicode="&#xa4;" horiz-adv-x="917" d="M0 592q0 145 254 289q229 129 381 129q94 0 94 -70q0 -27 -19.5 -47.5t-45.5 -20.5q-10 0 -21 5q-6 1 -14 0q-72 0 -230 -72q51 -12 52 -64q0 -27 -39 -198q33 2 69 6q25 209 58 264q20 33 57 33q29 0 48.5 -19.5t19.5 -46.5q0 -14 -9 -32q-18 -33 -39 -175 q102 25 150 60q20 14 43 14q27 0 46 -19.5t19 -45.5q0 -94 -272 -150v-24q0 -12 4 -34t4 -32q0 -27 -19.5 -46.5t-47.5 -19.5q-72 0 -72 138q-45 -4 -90 -4q-16 -92 -14 -117q4 -10 4 -23q0 -27 -19.5 -46t-46.5 -19q-72 0 -72 96q0 41 15 113q-248 28 -248 178zM133 590 q27 -35 141 -45q23 63 43 196q0 14 7 25q-193 -106 -191 -176zM365 297l2 -6v2z" />
<glyph unicode="&#xa5;" horiz-adv-x="800" d="M0 633q0 72 45 219t88 203q25 29 55 28q27 0 47.5 -19.5t20.5 -45.5l-62 -155q-62 -155 -63 -230q0 -23 6 -33q16 -8 35 -8q121 0 336 305q51 72 88 72q27 0 47.5 -20.5t18.5 -45.5v-12q-2 -8 -29 -162l-60 -309h9q172 0 172 -82q0 -27 -19.5 -46.5t-46.5 -19.5 q-18 0 -34.5 7.5t-65.5 7.5h-49q-51 -147 -154 -236q-113 -96 -264 -96q-104 0 -105 74q0 57 105 57q178 0 264 180q-27 -2 -63 -2q-104 0 -105 70q0 29 19.5 47t46.5 18q10 0 18 -2h18q74 0 115 6q8 33 47 242q-166 -186 -309 -186q-172 0 -172 174zM651 283l2 -2h2z" />
<glyph unicode="&#xa6;" />
<glyph unicode="&#xa7;" />
<glyph unicode="&#xa8;" horiz-adv-x="536" d="M0 1448q0 35 34 79t68 44q41 0 78 -37t37 -78q0 -92 -119 -92q-98 0 -98 84zM313 1446q0 35 41 72.5t78 37.5t70 -35.5t33 -72.5q0 -43 -34 -68.5t-79 -25.5q-43 0 -76 24.5t-33 67.5z" />
<glyph unicode="&#xa9;" horiz-adv-x="866" d="M6 578q0 47 14 96q35 117 154 254q133 154 240 153q31 0 61 -10q55 18 105 19q121 0 188 -107q57 -90 57 -217q0 -182 -143 -338q-147 -162 -328 -162q-131 0 -239.5 91.5t-108.5 220.5zM139 578q0 -74 70 -126.5t147 -52.5q123 0 232 123q-57 -25 -142 -24 q-88 0 -153 28q-86 37 -86 115q0 76 79 137.5t158 61.5q51 0 95 -17q53 -25 53 -69q0 -27 -19.5 -46.5t-46.5 -19.5q-14 0 -39.5 10.5t-42.5 10.5q-57 0 -100 -62q33 -18 105 -18q66 0 86 16.5t45 16.5q57 0 65 -58q47 82 47 160q0 98 -41 156l2 -13q0 -27 -20.5 -47 t-47 -20t-61.5 32l-53 52q-2 0 -74 -50q-49 -33 -69 -32q-23 0 -39 12q-150 -153 -150 -276z" />
<glyph unicode="&#xaa;" horiz-adv-x="477" d="M0 799q0 29 19.5 47t46.5 18q10 0 18 -2q10 -2 18 0q45 10 160 23h8q164 0 164 -82q0 -27 -19.5 -46.5t-45.5 -19.5q-18 0 -35 7.5t-66 7.5q-80 0 -82 -11.5t-82 -11.5q-104 0 -104 70zM0 1141q0 90 92 231q98 152 189 152q61 0 100 -60q33 -51 33 -116.5t-52 -75.5l3 -8 q0 -12 -4.5 -38t-4.5 -38q0 -51 26 -82t26 -55.5t-18.5 -45t-43.5 -20.5q-61 0 -98 100q-63 -61 -129 -61q-119 0 -119 117zM127 1159q41 10 90 88t74 82v25q0 23 -12 37q-35 -18 -88.5 -101.5t-63.5 -130.5zM332 748l2 -3h2z" />
<glyph unicode="&#xab;" horiz-adv-x="792" d="M-25 553q0 45 41 84q29 25 93 68q90 57 153 102q18 14 37 14q17 0 35 -12q31 -20 31 -57q0 -18 -11 -35q-16 -27 -90 -66q-92 -47 -137 -84q-6 -4 -10 -20q10 -10 18 -15l80 -50q39 -24 90 -36q45 -12 45 -63q0 -35 -27 -55q-17 -13 -36 -13q-11 0 -23 4l-90 35 q-23 10 -111 68.5t-88 130.5zM344 553q0 45 41 84q29 25 92 68q90 57 154 102q18 14 37 14q17 0 34 -12q31 -20 31 -57q0 -18 -10 -35q-16 -27 -90 -66q-92 -47 -137 -84q-6 -4 -11 -20q10 -10 19 -15l80 -50q39 -24 90 -36q45 -12 45 -63q0 -35 -28 -55q-17 -13 -36 -13 q-11 0 -22 4l-90 35q-23 10 -111 68.5t-88 130.5z" />
<glyph unicode="&#xac;" />
<glyph unicode="&#xad;" horiz-adv-x="483" d="M12 680q0 29 19.5 48.5t48.5 19.5q8 0 16 -3q0 -2 19 -2q31 0 94 4.5t94 4.5q133 0 133 -78q0 -27 -19.5 -46.5t-45.5 -19.5q-10 0 -32 5t-34 5q-33 0 -95.5 -4t-92.5 -4q-105 0 -105 70z" />
<glyph unicode="&#x2212;" horiz-adv-x="483" d="M12 680q0 29 19.5 48.5t48.5 19.5q8 0 16 -3q0 -2 19 -2q31 0 94 4.5t94 4.5q133 0 133 -78q0 -27 -19.5 -46.5t-45.5 -19.5q-10 0 -32 5t-34 5q-33 0 -95.5 -4t-92.5 -4q-105 0 -105 70z" />
<glyph unicode="&#xae;" horiz-adv-x="921" d="M8 545q0 207 172 465q37 59 51 67q20 16 41 17q14 0 29 -7q139 162 289 162q133 0 198 -188q45 -135 46 -301q0 -227 -113 -361q-121 -141 -348 -141q-365 0 -365 287zM141 547q0 -94 72 -131q53 -25 162 -25q184 0 264 119q-18 -14 -51 -14q-53 0 -123 32.5t-113 75.5 l-35 -75q-18 -38 -59 -37q-27 0 -46 19t-19 46q0 14 47 132t53 159q10 59 65 59q14 0 29 -6q76 80 141 80q51 0 80 -47q25 -39 25 -94q0 -139 -101 -197q39 -16 56 -14h10q31 2 49.5 -20.5t16.5 -53.5q39 76 38 205q0 84 -24 201q-35 156 -88 155q-47 0 -115.5 -50 t-95.5 -95q-20 -37 -60 -37q-14 0 -28 6q-150 -227 -150 -393zM436 754h10q2 0 5 -1q41 0 47 72q-35 -32 -62 -71z" />
<glyph unicode="&#xaf;" horiz-adv-x="501" d="M0 1419q0 29 19.5 47.5t46.5 18.5q10 0 18 -2h18q80 0 131.5 11t131.5 11q172 0 172 -82q0 -27 -19.5 -46t-46.5 -19q-18 0 -34.5 7t-65.5 7q-80 0 -133.5 -11t-133.5 -11q-104 -1 -104 69zM434 1368l2 -2h2z" />
<glyph unicode="&#x2c9;" horiz-adv-x="501" d="M0 1419q0 29 19.5 47.5t46.5 18.5q10 0 18 -2h18q80 0 131.5 11t131.5 11q172 0 172 -82q0 -27 -19.5 -46t-46.5 -19q-18 0 -34.5 7t-65.5 7q-80 0 -133.5 -11t-133.5 -11q-104 -1 -104 69zM434 1368l2 -2h2z" />
<glyph unicode="&#xb0;" horiz-adv-x="399" d="M0 1348q0 84 63 178q70 104 148 104q88 0 152.5 -68.5t64.5 -154.5q0 -88 -68.5 -163t-156.5 -75q-72 0 -137.5 54.5t-65.5 124.5zM133 1348q29 -45 72 -45q31 0 61.5 35.5t30.5 66.5q0 33 -26.5 62.5t-57.5 29.5q-23 -14 -52.5 -67.5t-27.5 -77.5v-4z" />
<glyph unicode="&#xb1;" horiz-adv-x="485" d="M0 627q0 29 19.5 47t46.5 18q10 0 18 -2q10 -2 18 0q20 2 37 4q0 199 82 199q27 0 46.5 -19.5t19.5 -46.5q0 -59 -7.5 -73.5t-7.5 -40.5q162 0 162 -82q0 -27 -19.5 -46.5t-45.5 -19.5q-18 0 -34 7.5t-50 7.5q10 -20 10 -99q0 -125 -70 -125q-27 0 -46 27t-19 59 q0 8 2 19q4 27 0 59l-4 39q-18 -2 -54 -2q-104 0 -104 70zM0 190q0 29 19.5 47.5t46.5 18.5q10 0 18 -2q10 -2 18 0q45 10 160 22q4 0 8 1q164 0 164 -82q0 -27 -19.5 -46.5t-45.5 -19.5q-18 0 -35 7t-66 7q-80 0 -82 -11t-82 -11q-104 -1 -104 69zM276 750l3 2v2zM332 139 l2 -2h2zM332 139l4 -2h-2zM332 575l2 -2h2z" />
<glyph unicode="&#xb2;" />
<glyph unicode="&#xb3;" />
<glyph unicode="&#xb4;" horiz-adv-x="376" d="M-6 1214q0 33 29 52q10 6 47 55l75 145q49 88 103 115q16 8 33 8q27 0 47 -19.5t20 -43.5q0 -45 -41 -64q-39 -27 -117 -182q-68 -133 -133 -133q-37 0 -53 29q-10 20 -10 38z" />
<glyph unicode="&#xb5;" />
<glyph unicode="&#x3bc;" />
<glyph unicode="&#xb6;" />
<glyph unicode="&#xb7;" />
<glyph unicode="&#x2219;" />
<glyph unicode="&#xb8;" horiz-adv-x="425" d="M31 -215q0 45 32 59q18 6 70 6q135 0 135 158q0 84 -46 183l-46 100q0 27 19.5 46t46.5 19q70 0 118 -143q41 -117 41 -203q0 -131 -69.5 -211t-198.5 -80q-102 0 -102 66z" />
<glyph unicode="&#xb9;" />
<glyph unicode="&#xba;" horiz-adv-x="479" d="M-6 1202q0 66 125 200t168 134q61 0 110 -109q43 -92 43 -161q0 -94 -64.5 -145.5t-162.5 -51.5q-78 0 -139 29q-80 36 -80 104zM0 860q0 29 19.5 47.5t46.5 18.5q10 0 18 -2q10 -2 18 0q45 10 160 22h8q164 0 164 -82q0 -27 -19.5 -46t-45.5 -19q-18 0 -35 7t-66 7 q-80 0 -82 -11t-82 -11q-104 -1 -104 69zM135 1217q33 -14 78 -15q94 0 94 66q0 41 -28 100q-57 -51 -78 -72q-43 -42 -66 -79zM332 809l2 -2h2z" />
<glyph unicode="&#xbb;" horiz-adv-x="792" d="M-25 752q0 37 29 57q19 12 37 12q19 0 37 -14q96 -59 246 -170q41 -39 41 -84q0 -72 -89.5 -130t-109.5 -69q-45 -16 -90 -35q-12 -5 -23 -4q-19 0 -37 13q-29 20 -28 55q0 51 48 63.5t88 36t79 49.5q10 4 18 15q-2 16 -8 20q-45 37 -137 84q-74 39 -90 66q-11 17 -11 35 zM344 752q0 37 29 57q19 12 36 12q19 0 37 -14q96 -59 246 -170q41 -39 41 -84q0 -72 -89 -130t-109 -69q-45 -16 -91 -35q-12 -5 -22 -4q-19 0 -37 13q-29 20 -29 55q0 51 48.5 63.5t88 36t78.5 49.5q10 4 19 15q-2 16 -8 20q-45 37 -138 84q-74 39 -90 66q-10 17 -10 35z " />
<glyph unicode="&#xbc;" />
<glyph unicode="&#xbd;" />
<glyph unicode="&#xbe;" />
<glyph unicode="&#xbf;" horiz-adv-x="665" d="M0 360q0 104 117 228q59 61 223 190q127 100 141 140q16 47 64 47q27 0 46 -20.5t19 -47.5q0 -55 -123 -162l-231 -194q-123 -113 -123 -181v-6q14 -10 55 -10q80 0 181 39q-49 12 -50 63q0 27 19.5 46.5t46.5 19.5q57 0 108.5 -36t51.5 -91q0 -82 -142 -133 q-113 -41 -217 -41q-80 0 -129 35q-57 38 -57 114zM524 1141q0 47 32 90t77 43q35 0 58.5 -25.5t23.5 -60.5q0 -45 -34 -88t-79 -43q-33 0 -55.5 25.5t-22.5 58.5z" />
<glyph unicode="&#xc0;" horiz-adv-x="1011" d="M0 233q0 78 141 390q131 291 199 393q25 35 59 35q127 238 256 237q90 0 119 -112q14 -55 14 -183q0 -88 -6 -207q29 23 60 43q43 31 61 31q27 0 46.5 -20.5t19.5 -46.5q0 -57 -199 -162q-6 -106 -33 -312q-12 -57 -65 -57q-29 0 -48.5 19.5t-19.5 48.5q0 39 10 114 q14 98 17 117q-330 -158 -378 -158h-3q-61 -141 -66 -149q-57 -106 -106 -107q-78 0 -78 86zM319 565q180 78 324 150q12 168 12 289q0 86 -12 139q-63 -57 -176 -273q-85 -160 -148 -305zM403 1853q0 25 20.5 44.5t47.5 19.5q16 0 33 -8q53 -27 102 -115l76 -145 q18 -29 20 -33l27 -23q29 -18 29 -51q0 -18 -10 -39q-14 -29 -54 -28q-66 0 -133 133q-78 156 -117 182q-41 18 -41 63z" />
<glyph unicode="&#xc1;" horiz-adv-x="1011" d="M0 233q0 78 141 390q131 291 199 393q25 35 59 35q127 238 256 237q90 0 119 -112q14 -55 14 -183q0 -88 -6 -207q29 23 60 43q43 31 61 31q27 0 46.5 -20.5t19.5 -46.5q0 -57 -199 -162q-6 -106 -33 -312q-12 -57 -65 -57q-29 0 -48.5 19.5t-19.5 48.5q0 39 10 114 q14 98 17 117q-330 -158 -378 -158h-3q-61 -141 -66 -149q-57 -106 -106 -107q-78 0 -78 86zM319 565q180 78 324 150q12 168 12 289q0 86 -12 139q-63 -57 -176 -273q-85 -160 -148 -305zM444 1460q0 33 29 51q10 6 47 56l76 145q49 88 102 115q16 8 33 8q27 0 47.5 -19.5 t20.5 -43.5q0 -45 -41 -64q-39 -27 -117 -182q-68 -133 -133 -133q-37 0 -53 28q-11 21 -11 39z" />
<glyph unicode="&#xc2;" horiz-adv-x="1011" d="M0 233q0 78 141 390q131 291 199 393q25 35 59 35q127 238 256 237q90 0 119 -112q14 -55 14 -183q0 -88 -6 -207q29 23 60 43q43 31 61 31q27 0 46.5 -20.5t19.5 -46.5q0 -57 -199 -162q-6 -106 -33 -312q-12 -57 -65 -57q-29 0 -48.5 19.5t-19.5 48.5q0 39 10 114 q14 98 17 117q-330 -158 -378 -158h-3q-61 -141 -66 -149q-57 -106 -106 -107q-78 0 -78 86zM319 565q180 78 324 150q12 168 12 289q0 86 -12 139q-63 -57 -176 -273q-85 -160 -148 -305zM389 1518q0 37 35 59q47 29 121 111q51 57 108 57q33 0 55.5 -25.5t16.5 -56.5 q4 -31 74 -80q90 -63 123 -108q16 -20 16 -43q0 -27 -20.5 -46.5t-47 -19.5t-51.5 25q-35 35 -112 92q-35 25 -84 86l-84 -86q-37 -31 -84 -31q-27 0 -46.5 19.5t-19.5 46.5z" />
<glyph unicode="&#xc3;" horiz-adv-x="1011" d="M0 233q0 78 141 390q131 291 199 393q25 35 59 35q127 238 256 237q90 0 119 -112q14 -55 14 -183q0 -88 -6 -207q29 23 60 43q43 31 61 31q27 0 46.5 -20.5t19.5 -46.5q0 -57 -199 -162q-6 -106 -33 -312q-12 -57 -65 -57q-29 0 -48.5 19.5t-19.5 48.5q0 39 10 114 q14 98 17 117q-330 -158 -378 -158h-3q-61 -141 -66 -149q-57 -106 -106 -107q-78 0 -78 86zM319 565q180 78 324 150q12 168 12 289q0 86 -12 139q-63 -57 -176 -273q-85 -160 -148 -305zM408 1548q0 16 53 88l69 93q27 37 93 36q70 0 104 -34q10 -10 43 -66q18 -35 51 -35 q41 0 60.5 55.5t64.5 55.5q29 0 49.5 -19.5t20.5 -48.5q0 -74 -60.5 -127t-134.5 -53q-92 0 -119 37q-33 47 -63 96q-31 -14 -76 -86q-39 -59 -88 -59q-27 0 -47 20t-20 47z" />
<glyph unicode="&#xc4;" horiz-adv-x="1011" d="M0 233q0 78 141 390q131 291 199 393q25 35 59 35q127 238 256 237q90 0 119 -112q14 -55 14 -183q0 -88 -6 -207q29 23 60 43q43 31 61 31q27 0 46.5 -20.5t19.5 -46.5q0 -57 -199 -162q-6 -106 -33 -312q-12 -57 -65 -57q-29 0 -48.5 19.5t-19.5 48.5q0 39 10 114 q14 98 17 117q-330 -158 -378 -158h-3q-61 -141 -66 -149q-57 -106 -106 -107q-78 0 -78 86zM319 565q180 78 324 150q12 168 12 289q0 86 -12 139q-63 -57 -176 -273q-85 -160 -148 -305zM410 1550q0 35 33.5 79t68.5 44q41 0 78 -37t37 -77q0 -92 -119 -93q-98 0 -98 84z M723 1548q0 35 41 73t78 38t69.5 -36t32.5 -73q0 -43 -33.5 -68.5t-79.5 -25.5q-43 0 -75.5 24.5t-32.5 67.5z" />
<glyph unicode="&#xc5;" horiz-adv-x="1011" d="M0 233q0 78 141 390q131 291 199 393q25 35 59 35q127 238 256 237q90 0 119 -112q14 -55 14 -183q0 -88 -6 -207q29 23 60 43q43 31 61 31q27 0 46.5 -20.5t19.5 -46.5q0 -57 -199 -162q-6 -106 -33 -312q-12 -57 -65 -57q-29 0 -48.5 19.5t-19.5 48.5q0 39 10 114 q14 98 17 117q-330 -158 -378 -158h-3q-61 -141 -66 -149q-57 -106 -106 -107q-78 0 -78 86zM319 565q180 78 324 150q12 168 12 289q0 86 -12 139q-63 -57 -176 -273q-85 -160 -148 -305zM485 1452q0 84 64 178q70 104 147 105q88 0 152.5 -69t64.5 -155 q0 -88 -68.5 -162.5t-156.5 -74.5q-72 0 -137.5 54t-65.5 124zM618 1452q29 -45 72 -45q31 0 61.5 36t30.5 66q0 33 -26.5 63t-57.5 30q-23 -14 -52.5 -67.5t-27.5 -78.5v-4z" />
<glyph unicode="&#xc6;" horiz-adv-x="1153" d="M0 233q0 78 141 390q131 291 199 393q25 35 59 35q127 238 256 237.5t133 -233.5q121 113 179 112q27 0 46 -19.5t19 -45.5q0 -35 -31 -58q-170 -115 -198 -167l102 -43q61 -27 62 -86q0 -47 -80 -169t-84 -173q6 -2 14 -3q43 0 125 28t98 28q27 0 46.5 -19.5t19.5 -48.5 q0 -41 -41 -61q-129 -57 -244 -58q-55 0 -94 23q-18 -33 -55 -33q-29 0 -48.5 19.5t-19.5 48.5q0 39 10 114q14 98 17 117q-330 -158 -378 -158h-3q-61 -141 -66 -149q-57 -106 -106 -107q-78 0 -78 86zM319 565q180 78 324 150q12 168 12 289q0 86 -12 139 q-63 -57 -176 -273q-85 -160 -148 -305zM772 645l47 80q-23 8 -41 16z" />
<glyph unicode="&#xc7;" horiz-adv-x="681" d="M0 580q0 63 20 133q37 131 203 307q176 190 299 190q84 0 109 -110q10 -49 10 -174q0 -111 -68 -111q-66 0 -65.5 99.5t-7.5 156.5q-90 -39 -208 -170t-145 -223q-14 -53 -14 -98q0 -127 178 -127q98 0 224 34q10 2 20 2q27 0 46.5 -19t19.5 -46q0 -45 -48 -64 q-106 -41 -258 -41q-139 0 -221 60q-94 68 -94 201zM72 -133q0 45 32 59q18 6 70 6q135 0 135 158q0 84 -46 183l-46 100q0 27 19.5 46t46.5 19q70 0 118 -143q41 -117 41 -203q0 -131 -69.5 -211t-198.5 -80q-102 0 -102 66z" />
<glyph unicode="&#xc8;" horiz-adv-x="487" d="M-109 1772q0 25 20.5 44t47.5 19q16 0 33 -8q53 -27 102 -115l76 -145q18 -29 20 -33l27 -23q29 -18 29 -51q0 -18 -10 -39q-14 -29 -54 -28q-66 0 -133 133q-78 156 -117 182q-41 19 -41 64zM0 918q0 72 121 184t178 112q27 0 46.5 -19t19.5 -46q0 -35 -31 -57 q-170 -115 -199 -168l103 -43q61 -27 61 -86q0 -47 -80 -169t-84 -173q6 -2 15 -2q43 0 124.5 27.5t98.5 27.5q27 0 46 -19.5t19 -48.5q0 -41 -41 -61q-129 -57 -243 -58q-152 0 -152 127q0 66 55 168l95 158q-152 52 -152 146z" />
<glyph unicode="&#xc9;" horiz-adv-x="487" d="M0 918q0 72 121 184t178 112q27 0 46.5 -19t19.5 -46q0 -35 -31 -57q-170 -115 -199 -168l103 -43q61 -27 61 -86q0 -47 -80 -169t-84 -173q6 -2 15 -2q43 0 124.5 27.5t98.5 27.5q27 0 46 -19.5t19 -48.5q0 -41 -41 -61q-129 -57 -243 -58q-152 0 -152 127q0 66 55 168 l95 158q-152 52 -152 146zM76 1460q0 33 28 51q10 6 48 56l75 145q49 88 103 115q16 8 32 8q27 0 47.5 -19.5t20.5 -43.5q0 -45 -41 -64q-39 -27 -117 -182q-68 -133 -133 -133q-37 0 -53 28q-10 21 -10 39z" />
<glyph unicode="&#xca;" horiz-adv-x="487" d="M0 918q0 72 121 184t178 112q27 0 46.5 -19t19.5 -46q0 -35 -31 -57q-170 -115 -199 -168l103 -43q61 -27 61 -86q0 -47 -80 -169t-84 -173q6 -2 15 -2q43 0 124.5 27.5t98.5 27.5q27 0 46 -19.5t19 -48.5q0 -41 -41 -61q-129 -57 -243 -58q-152 0 -152 127q0 66 55 168 l95 158q-152 52 -152 146zM0 1497q0 37 35 59q47 29 121 111q51 57 108 57q33 0 55.5 -25.5t16.5 -56.5q4 -31 74 -79q90 -63 122 -109q16 -20 17 -43q0 -27 -20.5 -46t-47 -19t-51.5 24q-35 35 -113 92q-35 25 -84 86l-83 -86q-37 -31 -84 -30q-27 0 -46.5 19t-19.5 46z " />
<glyph unicode="&#xcb;" horiz-adv-x="487" d="M0 918q0 72 121 184t178 112q27 0 46.5 -19t19.5 -46q0 -35 -31 -57q-170 -115 -199 -168l103 -43q61 -27 61 -86q0 -47 -80 -169t-84 -173q6 -2 15 -2q43 0 124.5 27.5t98.5 27.5q27 0 46 -19.5t19 -48.5q0 -41 -41 -61q-129 -57 -243 -58q-152 0 -152 127q0 66 55 168 l95 158q-152 52 -152 146zM20 1550q0 35 34 79t69 44q41 0 78 -37t37 -77q0 -92 -119 -93q-99 0 -99 84zM334 1548q0 35 41 73t77.5 38t69.5 -36t33 -73q0 -43 -34 -68.5t-79 -25.5q-43 0 -75.5 24.5t-32.5 67.5z" />
<glyph unicode="&#xcc;" horiz-adv-x="843" d="M0 362q0 35 29.5 68t62.5 33q66 0 66 -66h16h35l149 346q86 203 129 353q-100 -8 -159 -9q-256 0 -256 117q0 27 20.5 47.5t46.5 20.5q35 0 56 -31q18 -20 127 -20q63 0 189 10t187 10q182 0 183 -90q0 -27 -19.5 -46.5t-46.5 -19.5q-23 0 -41 15q-16 8 -72 8 q-31 0 -77 -2q-33 -160 -267 -694q207 29 312 82q16 8 32 8q27 0 46.5 -19.5t19.5 -46.5q0 -37 -33 -57q-76 -49 -266 -84q-168 -31 -287 -31q-182 0 -182 98zM362 1853q0 25 20.5 44.5t47.5 19.5q16 0 33 -8q53 -27 102 -115l76 -145q18 -29 21 -33l26 -23q29 -18 29 -51 q0 -18 -10 -39q-14 -29 -54 -28q-66 0 -133 133q-78 156 -117 182q-41 18 -41 63zM772 1102l2 -2z" />
<glyph unicode="&#xcd;" horiz-adv-x="843" d="M0 362q0 35 29.5 68t62.5 33q66 0 66 -66h16h35l149 346q86 203 129 353q-100 -8 -159 -9q-256 0 -256 117q0 27 20.5 47.5t46.5 20.5q35 0 56 -31q18 -20 127 -20q63 0 189 10t187 10q182 0 183 -90q0 -27 -19.5 -46.5t-46.5 -19.5q-23 0 -41 15q-16 8 -72 8 q-31 0 -77 -2q-33 -160 -267 -694q207 29 312 82q16 8 32 8q27 0 46.5 -19.5t19.5 -46.5q0 -37 -33 -57q-76 -49 -266 -84q-168 -31 -287 -31q-182 0 -182 98zM526 1460q0 33 29 51q10 6 47 56l76 145q49 88 102 115q16 8 33 8q27 0 47.5 -19.5t20.5 -43.5q0 -45 -41 -64 q-39 -27 -117 -182q-68 -133 -133 -133q-37 0 -53 28q-11 21 -11 39zM772 1102l2 -2z" />
<glyph unicode="&#xce;" horiz-adv-x="843" d="M0 362q0 35 29.5 68t62.5 33q66 0 66 -66h16h35l149 346q86 203 129 353q-100 -8 -159 -9q-256 0 -256 117q0 27 20.5 47.5t46.5 20.5q35 0 56 -31q18 -20 127 -20q63 0 189 10t187 10q182 0 183 -90q0 -27 -19.5 -46.5t-46.5 -19.5q-23 0 -41 15q-16 8 -72 8 q-31 0 -77 -2q-33 -160 -267 -694q207 29 312 82q16 8 32 8q27 0 46.5 -19.5t19.5 -46.5q0 -37 -33 -57q-76 -49 -266 -84q-168 -31 -287 -31q-182 0 -182 98zM307 1477q0 37 35 59q47 29 121 111q51 57 108 57q33 0 55.5 -25.5t16.5 -56.5q4 -31 74 -80q90 -63 123 -108 q16 -20 16 -43q0 -27 -20.5 -46.5t-47 -19.5t-51.5 25q-35 35 -112 92q-35 25 -84 86l-84 -86q-37 -31 -84 -31q-27 0 -46.5 19.5t-19.5 46.5zM772 1102l2 -2z" />
<glyph unicode="&#xcf;" horiz-adv-x="843" d="M0 362q0 35 29.5 68t62.5 33q66 0 66 -66h16h35l149 346q86 203 129 353q-100 -8 -159 -9q-256 0 -256 117q0 27 20.5 47.5t46.5 20.5q35 0 56 -31q18 -20 127 -20q63 0 189 10t187 10q182 0 183 -90q0 -27 -19.5 -46.5t-46.5 -19.5q-23 0 -41 15q-16 8 -72 8 q-31 0 -77 -2q-33 -160 -267 -694q207 29 312 82q16 8 32 8q27 0 46.5 -19.5t19.5 -46.5q0 -37 -33 -57q-76 -49 -266 -84q-168 -31 -287 -31q-182 0 -182 98zM369 1550q0 35 33.5 79t68.5 44q41 0 78 -37t37 -77q0 -92 -119 -93q-98 0 -98 84zM682 1548q0 35 41 73t78 38 t69.5 -36t32.5 -73q0 -43 -33.5 -68.5t-78.5 -25.5q-43 0 -76 24.5t-33 67.5zM772 1102l2 -2z" />
<glyph unicode="&#xd0;" horiz-adv-x="641" d="M-100 197q0 53 55 63q231 49 369 199q143 158 143 381q0 119 -92 198l-88 -215q86 -16 86 -78q0 -27 -19.5 -46t-46.5 -19q-18 0 -31.5 6t-42.5 8l-32 -84q-29 -66 -68 -190q-12 -66 -67 -66q-27 0 -46.5 19.5t-19.5 46.5q0 41 82 254q-18 -2 -39 -2q-104 4 -104 69 q0 29 19 48.5t48 19.5q8 0 18.5 -2t16.5 -2q35 4 100 16l131 316q-39 20 -63 20h-10q-27 0 -46.5 19.5t-19.5 46.5q0 68 76 67q78 0 234.5 -123t156.5 -325q0 -152 -59 -310q-51 -141 -239.5 -272t-334.5 -131q-27 0 -47 19.5t-20 48.5z" />
<glyph unicode="&#xd1;" horiz-adv-x="958" d="M0 412q0 47 85 349t112 355q20 43 61 43q61 0 68 -63q23 -248 45 -353q59 -256 178 -256q25 0 57 13q82 31 166 329q18 61 90 388q12 55 66 55q27 0 47 -19.5t20 -46.5q0 -84 -84 -375q-59 -215 -110 -305q-98 -172 -252 -172q-236 0 -322 418l-55 -182 q-37 -125 -39 -180q-4 -66 -67 -66q-27 0 -46.5 19.5t-19.5 48.5zM301 1417q0 16 53 88l70 92q27 37 92 37q70 0 105 -35q10 -10 43 -65q18 -35 51 -35q41 0 60.5 55.5t64.5 55.5q29 0 49 -19.5t20 -48.5q0 -74 -60.5 -127t-133.5 -53q-92 0 -119 37q-33 47 -64 96 q-31 -14 -75 -86q-39 -59 -88 -59q-27 0 -47.5 20t-20.5 47z" />
<glyph unicode="&#xd2;" horiz-adv-x="743" d="M0 510q0 141 98 367q111 254 221 253q33 0 51.5 -23.5t14.5 -51.5q20 4 47 4q131 0 201 -88q66 -80 65 -215q0 -186 -141 -328.5t-326 -142.5q-231 0 -231 225zM133 510q0 -53 20.5 -73.5t75.5 -20.5q131 0 233.5 104.5t102.5 233.5q0 172 -135 172h-6q-29 -27 -119 -168 q-20 -33 -57 -33q-39 0 -58 35q-57 -146 -57 -250zM178 1772q0 25 20.5 44t47.5 19q16 0 33 -8q53 -27 102 -115l76 -145q18 -29 20 -33l27 -23q29 -18 28 -51q0 -18 -10 -39q-14 -29 -53 -28q-66 0 -133 133q-78 156 -117 182q-41 19 -41 64z" />
<glyph unicode="&#xd3;" horiz-adv-x="743" d="M0 510q0 141 98 367q111 254 221 253q33 0 51.5 -23.5t14.5 -51.5q20 4 47 4q131 0 201 -88q66 -80 65 -215q0 -186 -141 -328.5t-326 -142.5q-231 0 -231 225zM133 510q0 -53 20.5 -73.5t75.5 -20.5q131 0 233.5 104.5t102.5 233.5q0 172 -135 172h-6q-29 -27 -119 -168 q-20 -33 -57 -33q-39 0 -58 35q-57 -146 -57 -250zM342 1460q0 33 29 51q10 6 47 56l76 145q49 88 102 115q16 8 33 8q27 0 47 -19.5t20 -43.5q0 -45 -41 -64q-39 -27 -116 -182q-68 -133 -133 -133q-37 0 -54 28q-10 21 -10 39z" />
<glyph unicode="&#xd4;" horiz-adv-x="743" d="M0 510q0 141 98 367q111 254 221 253q33 0 51.5 -23.5t14.5 -51.5q20 4 47 4q131 0 201 -88q66 -80 65 -215q0 -186 -141 -328.5t-326 -142.5q-231 0 -231 225zM133 510q0 -53 20.5 -73.5t75.5 -20.5q131 0 233.5 104.5t102.5 233.5q0 172 -135 172h-6q-29 -27 -119 -168 q-20 -33 -57 -33q-39 0 -58 35q-57 -146 -57 -250zM225 1395q0 37 35 59q47 29 121 111q51 57 108 57q33 0 55.5 -25.5t16.5 -56.5q4 -31 74 -80q90 -63 123 -108q16 -20 16 -43q0 -27 -20.5 -46.5t-47 -19.5t-51.5 25q-35 35 -112 92q-35 25 -84 86l-84 -86 q-37 -31 -84 -31q-27 0 -46.5 19.5t-19.5 46.5z" />
<glyph unicode="&#xd5;" horiz-adv-x="743" d="M0 510q0 141 98 367q111 254 221 253q33 0 51.5 -23.5t14.5 -51.5q20 4 47 4q131 0 201 -88q66 -80 65 -215q0 -186 -141 -328.5t-326 -142.5q-231 0 -231 225zM133 510q0 -53 20.5 -73.5t75.5 -20.5q131 0 233.5 104.5t102.5 233.5q0 172 -135 172h-6q-29 -27 -119 -168 q-20 -33 -57 -33q-39 0 -58 35q-57 -146 -57 -250zM160 1405q0 16 53 88l70 92q27 37 92 37q70 0 104 -35q10 -10 43 -65q18 -35 51 -35q41 0 60.5 55t64.5 55q29 0 49.5 -19t20.5 -48q0 -74 -60.5 -127t-134.5 -53q-92 0 -118 36q-33 47 -64 97q-31 -14 -76 -86 q-39 -59 -88 -60q-27 0 -47 20.5t-20 47.5z" />
<glyph unicode="&#xd6;" horiz-adv-x="743" d="M0 510q0 141 98 367q111 254 221 253q33 0 51.5 -23.5t14.5 -51.5q20 4 47 4q131 0 201 -88q66 -80 65 -215q0 -186 -141 -328.5t-326 -142.5q-231 0 -231 225zM133 510q0 -53 20.5 -73.5t75.5 -20.5q131 0 233.5 104.5t102.5 233.5q0 172 -135 172h-6q-29 -27 -119 -168 q-20 -33 -57 -33q-39 0 -58 35q-57 -146 -57 -250zM246 1427q0 35 33.5 79t68.5 44q41 0 78 -36.5t37 -77.5q0 -92 -119 -93q-98 0 -98 84zM559 1425q0 35 41 73t78 38t69.5 -36t32.5 -73q0 -43 -33.5 -68.5t-78.5 -25.5q-43 0 -76 24.5t-33 67.5z" />
<glyph unicode="&#xd7;" horiz-adv-x="454" d="M-4 469q0 55 45 80q23 14 45 41l25 28q-14 12 -39 37q-43 45 -43 80q0 25 20.5 44.5t44.5 19.5q41 0 60 -35q8 -12 41 -39q100 96 159 96q57 0 58 -61q0 -29 -19 -47q-43 -41 -58.5 -46t-35.5 -24q76 -76 76 -127q0 -63 -68 -63q-51 0 -63 49q-6 14 -31 41 q-8 -23 -64.5 -77t-97.5 -54q-55 0 -55 57zM244 502v2v-2zM330 666l2 2h2z" />
<glyph unicode="&#xd8;" horiz-adv-x="1007" d="M0 319q0 117 244 437q215 281 256 305q-14 16 -15 39q0 68 82 67q117 0 205 -32q70 113 82 153q18 49 66 49q27 0 46 -19.5t19 -45.5q0 -41 -102 -205q82 -78 82 -211q0 -258 -177 -442q-76 -80 -215 -162t-266 -117q-34 -76 -33 -117v-12v-10q0 -29 -19 -48.5t-46 -19.5 q-68 0 -68 86q0 47 15 103q-156 18 -156 202zM133 317q0 -70 41 -69h2h19q6 0 14 2q94 180 426 674l61 94q-41 10 -102 14q6 -12 6 -28q0 -23 -16 -43l-256 -316q-195 -252 -195 -328zM397 309q434 178 434 547q0 55 -24 92z" />
<glyph unicode="&#xd9;" horiz-adv-x="542" d="M0 557q0 76 37 214t76 204q23 37 59 37q27 0 46.5 -19.5t19.5 -46.5q0 -14 -7 -31q-100 -225 -100 -362q0 -20 4 -31q82 0 141 113q33 66 78 219q37 129 57.5 145.5t43.5 16.5q27 0 47 -19.5t20 -46.5v2q-3 0 -30 -100q-51 -199 -111 -299q-96 -164 -246 -164 q-135 0 -135 168zM35 1690q0 25 20.5 44t46.5 19q16 0 33 -8q53 -27 103 -115l75 -145q18 -29 21 -33l26 -22q29 -18 29 -52q0 -18 -10 -39q-14 -29 -53 -28q-66 0 -133 133q-78 156 -117 182q-41 19 -41 64z" />
<glyph unicode="&#xda;" horiz-adv-x="542" d="M0 557q0 76 37 214t76 204q23 37 59 37q27 0 46.5 -19.5t19.5 -46.5q0 -14 -7 -31q-100 -225 -100 -362q0 -20 4 -31q82 0 141 113q33 66 78 219q37 129 57.5 145.5t43.5 16.5q27 0 47 -19.5t20 -46.5v2q-3 0 -30 -100q-51 -199 -111 -299q-96 -164 -246 -164 q-135 0 -135 168zM240 1317q0 33 28 51q10 6 47 55l76 146q49 88 103 114q16 8 32 9q27 0 47.5 -19.5t20.5 -44.5q0 -45 -41 -63q-39 -27 -117 -183q-68 -133 -133 -133q-37 0 -53 29q-10 21 -10 39z" />
<glyph unicode="&#xdb;" horiz-adv-x="542" d="M0 557q0 76 37 214t76 204q23 37 59 37q27 0 46.5 -19.5t19.5 -46.5q0 -14 -7 -31q-100 -225 -100 -362q0 -20 4 -31q82 0 141 113q33 66 78 219q37 129 57.5 145.5t43.5 16.5q27 0 47 -19.5t20 -46.5v2q-3 0 -30 -100q-51 -199 -111 -299q-96 -164 -246 -164 q-135 0 -135 168zM82 1354q0 37 35 59q47 29 121 111q51 57 108 57q33 0 55.5 -25.5t16.5 -56.5q4 -31 74 -80q90 -63 122 -108q16 -20 17 -43q0 -27 -20.5 -46.5t-47 -19.5t-51.5 25q-35 35 -113 92q-35 25 -84 86l-84 -86q-37 -31 -84 -31q-27 0 -46 19.5t-19 46.5z" />
<glyph unicode="&#xdc;" horiz-adv-x="542" d="M0 557q0 76 37 214t76 204q23 37 59 37q27 0 46.5 -19.5t19.5 -46.5q0 -14 -7 -31q-100 -225 -100 -362q0 -20 4 -31q82 0 141 113q33 66 78 219q37 129 57.5 145.5t43.5 16.5q27 0 47 -19.5t20 -46.5v2q-3 0 -30 -100q-51 -199 -111 -299q-96 -164 -246 -164 q-135 0 -135 168zM143 1366q0 35 34 79t69 44q41 0 77.5 -37t36.5 -78q0 -92 -118 -92q-99 0 -99 84zM457 1364q0 35 41 73t77.5 38t69.5 -36t33 -73q0 -43 -34 -68.5t-79 -25.5q-43 0 -75.5 24.5t-32.5 67.5z" />
<glyph unicode="&#xdd;" horiz-adv-x="673" d="M0 633q0 72 45 219t88 203q25 29 55 28q27 0 47.5 -19.5t20.5 -45.5l-62 -155q-62 -155 -63 -230q0 -23 6 -33q16 -8 35 -8q121 0 336 305q51 72 88 72q27 0 47.5 -20.5t18.5 -45.5v-12q-2 -8 -29 -162q-45 -244 -72 -367q-39 -174 -149 -284q-121 -123 -291 -123 q-104 0 -105 74q0 57 105 57q186 0 274 201q35 80 86 358q-166 -186 -309 -186q-172 0 -172 174zM444 1399q0 33 29 51q10 6 47 55l76 146q49 88 102 114q16 8 33 9q27 0 47.5 -19.5t20.5 -44.5q0 -45 -41 -63q-39 -27 -117 -183q-68 -133 -133 -133q-37 0 -53 29 q-11 21 -11 39z" />
<glyph unicode="&#xde;" />
<glyph unicode="&#xdf;" />
<glyph unicode="&#xe0;" horiz-adv-x="481" d="M-6 1321q0 25 20.5 44t46.5 19q16 0 33 -8q53 -27 103 -114l75 -146q18 -29 21 -33l26 -22q29 -18 29 -51q0 -18 -10 -39q-14 -29 -53 -29q-66 0 -133 133q-78 156 -117 182q-41 19 -41 64zM-2 381q0 92 92 231q98 154 189 154q61 0 100 -59q33 -51 33 -117t-52 -76 l2 -10q0 -12 -4 -37t-4 -37q0 -53 26 -83t26 -54q0 -27 -18.5 -47.5t-43.5 -20.5q-61 0 -98 101q-63 -59 -129 -60q-119 0 -119 115zM125 399q41 12 90 89t74 81v25q0 23 -13 37q-35 -18 -88 -101.5t-63 -130.5z" />
<glyph unicode="&#xe1;" horiz-adv-x="481" d="M-2 381q0 92 92 231q98 154 189 154q61 0 100 -59q33 -51 33 -117t-52 -76l2 -10q0 -12 -4 -37t-4 -37q0 -53 26 -83t26 -54q0 -27 -18.5 -47.5t-43.5 -20.5q-61 0 -98 101q-63 -59 -129 -60q-119 0 -119 115zM125 399q41 12 90 89t74 81v25q0 23 -13 37 q-35 -18 -88 -101.5t-63 -130.5zM178 1051q0 33 29 51q10 6 47 55l76 146q49 88 102 114q16 8 33 8q27 0 47 -19.5t20 -43.5q0 -45 -40 -64q-39 -27 -117 -182q-68 -133 -133 -133q-37 0 -54 29q-10 21 -10 39z" />
<glyph unicode="&#xe2;" horiz-adv-x="481" d="M-2 381q0 92 92 231q98 154 189 154q61 0 100 -59q33 -51 33 -117t-52 -76l2 -10q0 -12 -4 -37t-4 -37q0 -53 26 -83t26 -54q0 -27 -18.5 -47.5t-43.5 -20.5q-61 0 -98 101q-63 -59 -129 -60q-119 0 -119 115zM49 1087q0 37 35 60q47 29 121 110q51 57 108 58 q33 0 55.5 -25.5t16.5 -56.5q4 -31 74 -80q90 -63 123 -109q16 -20 16 -43q0 -27 -20.5 -46t-47 -19t-51.5 25q-35 35 -112 92q-35 25 -84 86l-84 -86q-37 -31 -84 -31q-27 0 -46.5 19t-19.5 46zM125 399q41 12 90 89t74 81v25q0 23 -13 37q-35 -18 -88 -101.5t-63 -130.5z " />
<glyph unicode="&#xe3;" horiz-adv-x="481" d="M-25 975q0 16 54 88l69 92q27 37 92 37q70 0 105 -35q10 -10 43 -65q18 -35 51 -35q41 0 60.5 55t64.5 55q29 0 49.5 -19.5t20.5 -47.5q0 -74 -60.5 -127t-134.5 -53q-92 0 -119 36q-33 47 -63 97q-31 -14 -76 -86q-39 -59 -88 -60q-27 0 -47.5 20.5t-20.5 47.5zM-2 381 q0 92 92 231q98 154 189 154q61 0 100 -59q33 -51 33 -117t-52 -76l2 -10q0 -12 -4 -37t-4 -37q0 -53 26 -83t26 -54q0 -27 -18.5 -47.5t-43.5 -20.5q-61 0 -98 101q-63 -59 -129 -60q-119 0 -119 115zM125 399q41 12 90 89t74 81v25q0 23 -13 37q-35 -18 -88 -101.5 t-63 -130.5z" />
<glyph unicode="&#xe4;" horiz-adv-x="481" d="M-2 381q0 92 92 231q98 154 189 154q61 0 100 -59q33 -51 33 -117t-52 -76l2 -10q0 -12 -4 -37t-4 -37q0 -53 26 -83t26 -54q0 -27 -18.5 -47.5t-43.5 -20.5q-61 0 -98 101q-63 -59 -129 -60q-119 0 -119 115zM61 1059q0 35 34 79t69 44q41 0 78 -37t37 -78 q0 -92 -119 -92q-99 0 -99 84zM125 399q41 12 90 89t74 81v25q0 23 -13 37q-35 -18 -88 -101.5t-63 -130.5zM375 1057q0 35 41 72.5t77.5 37.5t69.5 -35.5t33 -72.5q0 -43 -34 -68.5t-79 -25.5q-43 0 -75.5 24.5t-32.5 67.5z" />
<glyph unicode="&#xe5;" horiz-adv-x="481" d="M-2 381q0 92 92 231q98 154 189 154q61 0 100 -59q33 -51 33 -117t-52 -76l2 -10q0 -12 -4 -37t-4 -37q0 -53 26 -83t26 -54q0 -27 -18.5 -47.5t-43.5 -20.5q-61 0 -98 101q-63 -59 -129 -60q-119 0 -119 115zM82 922q0 84 63 178q70 104 148 104q88 0 152.5 -68.5 t64.5 -154.5q0 -88 -68.5 -163t-156.5 -75q-72 0 -137.5 54.5t-65.5 124.5zM125 399q41 12 90 89t74 81v25q0 23 -13 37q-35 -18 -88 -101.5t-63 -130.5zM215 922q29 -45 72 -45q31 0 61.5 35.5t30.5 66.5q0 33 -26.5 62.5t-57.5 29.5q-23 -14 -52.5 -67.5t-27.5 -77.5v-4z " />
<glyph unicode="&#xe6;" horiz-adv-x="759" d="M-2 381q0 92 92 231q98 154 186 154q82 0 119 -94q82 53 174 53q57 0 96.5 -28.5t39.5 -82.5q0 -106 -113 -172q-90 -53 -209 -65q35 -139 135 -139q6 0 19.5 2t19.5 2q25 0 43 -19.5t18 -46.5q0 -72 -100 -72q-139 0 -219 140q-35 29 -53 82q-66 -59 -129 -60 q-119 0 -119 115zM123 399q43 12 91 89t73 81v25q0 23 -11 37q-37 -18 -89 -101.5t-64 -130.5zM408 514q125 25 165 78h-5q-96 0 -160 -78z" />
<glyph unicode="&#xe7;" horiz-adv-x="462" d="M-51 -113q0 45 33 60q16 6 70.5 7t76.5 30q16 25 16 86q0 84 -25 142l-26 58q0 27 19.5 46.5t46.5 19.5q119 0 119 -264q0 -250 -217 -250h-11q-102 2 -102 65zM0 395q0 100 93 217t190 117q80 0 120 -80q8 -14 9 -33q0 -27 -17.5 -46t-44.5 -19q-29 0 -47 23.5t-20 23.5 q-43 0 -101.5 -79t-58.5 -124l2 -2q18 -31 55 -31q31 0 72 20.5t55 20.5q25 0 43.5 -19t18.5 -46q0 -49 -72 -82q-61 -27 -117 -27q-72 0 -126 48t-54 118z" />
<glyph unicode="&#xe8;" horiz-adv-x="475" d="M-6 1321q0 25 20.5 44t46.5 19q16 0 33 -8q53 -27 103 -114l75 -146q18 -29 21 -33l26 -22q29 -18 29 -51q0 -18 -10 -39q-14 -29 -53 -29q-66 0 -133 133q-78 156 -117 182q-41 19 -41 64zM0 502q0 123 97.5 211t219.5 88q57 0 96.5 -29t39.5 -82q0 -106 -113 -172 q-90 -53 -209 -65q35 -139 135 -140q6 0 19.5 2t19.5 2q25 0 43.5 -19t18.5 -46q0 -72 -101 -72q-117 0 -194 105q-72 94 -72 217zM156 590q125 25 166 78h-5q-97 0 -161 -78z" />
<glyph unicode="&#xe9;" horiz-adv-x="475" d="M0 502q0 123 97.5 211t219.5 88q57 0 96.5 -29t39.5 -82q0 -106 -113 -172q-90 -53 -209 -65q35 -139 135 -140q6 0 19.5 2t19.5 2q25 0 43.5 -19t18.5 -46q0 -72 -101 -72q-117 0 -194 105q-72 94 -72 217zM156 590q125 25 166 78h-5q-97 0 -161 -78zM178 1051 q0 33 29 51q10 6 47 55l76 146q49 88 102 114q16 8 33 8q27 0 47 -19.5t20 -43.5q0 -45 -40 -64q-39 -27 -117 -182q-68 -133 -133 -133q-37 0 -54 29q-10 21 -10 39z" />
<glyph unicode="&#xea;" horiz-adv-x="475" d="M0 502q0 123 97.5 211t219.5 88q57 0 96.5 -29t39.5 -82q0 -106 -113 -172q-90 -53 -209 -65q35 -139 135 -140q6 0 19.5 2t19.5 2q25 0 43.5 -19t18.5 -46q0 -72 -101 -72q-117 0 -194 105q-72 94 -72 217zM49 1108q0 37 35 59q47 29 121 111q51 57 108 57 q33 0 55.5 -25.5t16.5 -56.5q4 -31 74 -79q90 -63 123 -109q16 -20 16 -43q0 -27 -20.5 -46.5t-47 -19.5t-51.5 25q-35 35 -112 92q-35 25 -84 86l-84 -86q-37 -31 -84 -31q-27 0 -46.5 19.5t-19.5 46.5zM156 590q125 25 166 78h-5q-97 0 -161 -78z" />
<glyph unicode="&#xeb;" horiz-adv-x="475" d="M0 502q0 123 97.5 211t219.5 88q57 0 96.5 -29t39.5 -82q0 -106 -113 -172q-90 -53 -209 -65q35 -139 135 -140q6 0 19.5 2t19.5 2q25 0 43.5 -19t18.5 -46q0 -72 -101 -72q-117 0 -194 105q-72 94 -72 217zM61 1059q0 35 34 79t69 44q41 0 78 -37t37 -78q0 -92 -119 -92 q-99 0 -99 84zM156 590q125 25 166 78h-5q-97 0 -161 -78zM375 1057q0 35 41 72.5t77.5 37.5t69.5 -35.5t33 -72.5q0 -43 -34 -68.5t-79 -25.5q-43 0 -75.5 24.5t-32.5 67.5z" />
<glyph unicode="&#xec;" horiz-adv-x="249" d="M-109 1321q0 25 20.5 44t47.5 19q16 0 33 -8q53 -27 102 -114l76 -146q18 -29 20 -33l27 -22q29 -18 29 -51q0 -18 -10 -39q-14 -29 -54 -29q-66 0 -133 133q-78 156 -117 182q-41 19 -41 64zM0 369q0 51 36 144t40 136q6 63 65 64q29 0 48.5 -19.5t19.5 -46.5 q0 -49 -37 -145t-37 -148q0 -27 -19.5 -46t-45.5 -19q-70 0 -70 80z" />
<glyph unicode="&#xed;" horiz-adv-x="249" d="M0 369q0 51 36 144t40 136q6 63 65 64q29 0 48.5 -19.5t19.5 -46.5q0 -49 -37 -145t-37 -148q0 -27 -19.5 -46t-45.5 -19q-70 0 -70 80zM117 1051q0 33 28 51q10 6 48 55l75 146q49 88 103 114q16 8 32 8q27 0 47.5 -19.5t20.5 -43.5q0 -45 -41 -64q-39 -27 -117 -182 q-68 -133 -133 -133q-37 0 -53 29q-10 21 -10 39z" />
<glyph unicode="&#xee;" horiz-adv-x="249" d="M-12 1087q0 37 35 60q47 29 120 110q51 57 109 58q33 0 55.5 -25.5t16.5 -56.5q4 -31 73 -80q90 -63 123 -109q16 -20 17 -43q0 -27 -20.5 -46t-47.5 -19t-51 25q-35 35 -113 92q-35 25 -84 86l-84 -86q-37 -31 -84 -31q-27 0 -46 19t-19 46zM0 369q0 51 36 144t40 136 q6 63 65 64q29 0 48.5 -19.5t19.5 -46.5q0 -49 -37 -145t-37 -148q0 -27 -19.5 -46t-45.5 -19q-70 0 -70 80z" />
<glyph unicode="&#xef;" horiz-adv-x="249" d="M-20 1059q0 35 33.5 79t68.5 44q41 0 78 -37t37 -78q0 -92 -119 -92q-98 0 -98 84zM0 369q0 51 36 144t40 136q6 63 65 64q29 0 48.5 -19.5t19.5 -46.5q0 -49 -37 -145t-37 -148q0 -27 -19.5 -46t-45.5 -19q-70 0 -70 80zM293 1057q0 35 41 72.5t78 37.5t69.5 -35.5 t32.5 -72.5q0 -43 -34 -68.5t-79 -25.5q-43 0 -75.5 24.5t-32.5 67.5z" />
<glyph unicode="&#xf0;" horiz-adv-x="690" d="M14 496q0 98 74 159q70 55 170 56q111 0 219 -99q-31 170 -78 299q-16 -4 -71 -4q-104 0 -105 70q0 45 33 57q16 6 70 6l16 2q-4 10 -70 115q-57 88 -57 100q0 27 20.5 46.5t47.5 19.5q82 0 200 -260h17h7q150 0 150 -82q0 -27 -19.5 -46.5t-47.5 -19.5q-10 0 -28.5 6.5 t-26.5 8.5q106 -317 106 -592q0 -113 -61 -193q-68 -88 -177 -88q-162 0 -278 142q-111 133 -111 297zM145 494q0 -106 77 -205t181 -99q49 0 77 45.5t28 96.5q0 10 -2 47l-107 125q-70 74 -137 74q-117 0 -117 -84z" />
<glyph unicode="&#xf1;" horiz-adv-x="587" d="M-6 362q0 16 74.5 159t94 165.5t50.5 22.5q27 0 46.5 -19.5t19.5 -48.5q0 -20 -13 -37q119 78 180 78q98 0 99 -121q0 -76 -103 -309q-14 -47 -63 -47q-27 0 -47.5 19.5t-20.5 45.5q0 16 46 122t53 143q-96 -47 -308 -222q-18 -16 -43 -16q-27 0 -46 19t-19 46zM119 954 q0 16 53 88l70 93q27 37 92 36q70 0 104 -34q10 -10 43 -66q18 -35 51 -35q41 0 60.5 55.5t64.5 55.5q29 0 49.5 -19.5t20.5 -48.5q0 -74 -60.5 -127t-134.5 -53q-92 0 -118 37q-33 47 -64 96q-31 -14 -76 -86q-39 -59 -88 -59q-27 0 -47 20t-20 47z" />
<glyph unicode="&#xf2;" horiz-adv-x="499" d="M-6 383q0 66 125 200t170 134q61 0 110 -109q41 -92 41 -162q0 -94 -64.5 -145t-162.5 -51q-76 0 -139 29q-80 36 -80 104zM-6 1321q0 25 20.5 44t46.5 19q16 0 33 -8q53 -27 103 -114l75 -146q18 -29 21 -33l26 -22q29 -18 29 -51q0 -18 -10 -39q-14 -29 -53 -29 q-66 0 -133 133q-78 156 -117 182q-41 19 -41 64zM135 397q35 -14 78 -14q96 0 96 66q0 41 -30 100q-55 -51 -76 -72q-45 -43 -68 -80z" />
<glyph unicode="&#xf3;" horiz-adv-x="499" d="M-6 383q0 66 125 200t170 134q61 0 110 -109q41 -92 41 -162q0 -94 -64.5 -145t-162.5 -51q-76 0 -139 29q-80 36 -80 104zM135 397q35 -14 78 -14q96 0 96 66q0 41 -30 100q-55 -51 -76 -72q-45 -43 -68 -80zM240 1051q0 33 28 51q10 6 47 55l76 146q49 88 103 114 q16 8 32 8q27 0 47.5 -19.5t20.5 -43.5q0 -45 -41 -64q-39 -27 -117 -182q-68 -133 -133 -133q-37 0 -53 29q-10 21 -10 39z" />
<glyph unicode="&#xf4;" horiz-adv-x="499" d="M-6 383q0 66 125 200t170 134q61 0 110 -109q41 -92 41 -162q0 -94 -64.5 -145t-162.5 -51q-76 0 -139 29q-80 36 -80 104zM49 1006q0 37 35 59q47 29 121 111q51 57 108 57q33 0 55.5 -25.5t16.5 -56.5q4 -31 74 -80q90 -63 123 -108q16 -20 16 -43q0 -27 -20.5 -46.5 t-47 -19.5t-51.5 25q-35 35 -112 92q-35 25 -84 86l-84 -86q-37 -31 -84 -31q-27 0 -46.5 19.5t-19.5 46.5zM135 397q35 -14 78 -14q96 0 96 66q0 41 -30 100q-55 -51 -76 -72q-45 -43 -68 -80z" />
<glyph unicode="&#xf5;" horiz-adv-x="499" d="M-6 383q0 66 125 200t170 134q61 0 110 -109q41 -92 41 -162q0 -94 -64.5 -145t-162.5 -51q-76 0 -139 29q-80 36 -80 104zM37 954q0 16 53 88l70 93q27 37 92 36q70 0 104 -34q10 -10 43 -66q18 -35 52 -35q41 0 60 55.5t64 55.5q29 0 49.5 -19.5t20.5 -48.5 q0 -74 -60.5 -127t-133.5 -53q-92 0 -119 37q-33 47 -64 96q-31 -14 -75 -86q-39 -59 -89 -59q-27 0 -47 20t-20 47zM135 397q35 -14 78 -14q96 0 96 66q0 41 -30 100q-55 -51 -76 -72q-45 -43 -68 -80z" />
<glyph unicode="&#xf6;" horiz-adv-x="499" d="M-6 383q0 66 125 200t170 134q61 0 110 -109q41 -92 41 -162q0 -94 -64.5 -145t-162.5 -51q-76 0 -139 29q-80 36 -80 104zM61 1059q0 35 34 79t69 44q41 0 78 -37t37 -78q0 -92 -119 -92q-99 0 -99 84zM135 397q35 -14 78 -14q96 0 96 66q0 41 -30 100q-55 -51 -76 -72 q-45 -43 -68 -80zM375 1057q0 35 41 72.5t77.5 37.5t69.5 -35.5t33 -72.5q0 -43 -34 -68.5t-79 -25.5q-43 0 -75.5 24.5t-32.5 67.5z" />
<glyph unicode="&#xf7;" />
<glyph unicode="&#xf8;" />
<glyph unicode="&#xf9;" horiz-adv-x="575" d="M-6 1321q0 25 20.5 44t46.5 19q16 0 33 -8q53 -27 103 -114l75 -146q18 -29 21 -33l26 -22q29 -18 29 -51q0 -18 -10 -39q-14 -29 -53 -29q-66 0 -133 133q-78 156 -117 182q-41 19 -41 64zM0 410q0 66 51 163t55 129q6 66 66 66q27 0 47.5 -19.5t20.5 -46.5 q0 -49 -53.5 -152.5t-53.5 -139.5q0 -43 14 -60q55 14 152.5 138t97.5 188q0 27 19.5 46t48.5 19q27 0 46 -19.5t19 -45.5q0 -113 -137 -283q-141 -176 -248 -176q-72 0 -112 64q-33 53 -33 129z" />
<glyph unicode="&#xfa;" horiz-adv-x="575" d="M0 410q0 66 51 163t55 129q6 66 66 66q27 0 47.5 -19.5t20.5 -46.5q0 -49 -53.5 -152.5t-53.5 -139.5q0 -43 14 -60q55 14 152.5 138t97.5 188q0 27 19.5 46t48.5 19q27 0 46 -19.5t19 -45.5q0 -113 -137 -283q-141 -176 -248 -176q-72 0 -112 64q-33 53 -33 129z M281 1051q0 33 28 51q10 6 47 55l76 146q49 88 103 114q16 8 32 8q27 0 47.5 -19.5t20.5 -43.5q0 -45 -41 -64q-39 -27 -117 -182q-68 -133 -133 -133q-37 0 -53 29q-10 21 -10 39z" />
<glyph unicode="&#xfb;" horiz-adv-x="575" d="M0 410q0 66 51 163t55 129q6 66 66 66q27 0 47.5 -19.5t20.5 -46.5q0 -49 -53.5 -152.5t-53.5 -139.5q0 -43 14 -60q55 14 152.5 138t97.5 188q0 27 19.5 46t48.5 19q27 0 46 -19.5t19 -45.5q0 -113 -137 -283q-141 -176 -248 -176q-72 0 -112 64q-33 53 -33 129z M49 1087q0 37 35 60q47 29 121 110q51 57 108 58q33 0 55.5 -25.5t16.5 -56.5q4 -31 74 -80q90 -63 123 -109q16 -20 16 -43q0 -27 -20.5 -46t-47 -19t-51.5 25q-35 35 -112 92q-35 25 -84 86l-84 -86q-37 -31 -84 -31q-27 0 -46.5 19t-19.5 46z" />
<glyph unicode="&#xfc;" horiz-adv-x="575" d="M0 410q0 66 51 163t55 129q6 66 66 66q27 0 47.5 -19.5t20.5 -46.5q0 -49 -53.5 -152.5t-53.5 -139.5q0 -43 14 -60q55 14 152.5 138t97.5 188q0 27 19.5 46t48.5 19q27 0 46 -19.5t19 -45.5q0 -113 -137 -283q-141 -176 -248 -176q-72 0 -112 64q-33 53 -33 129z M123 1059q0 35 33.5 79t68.5 44q41 0 78 -37t37 -78q0 -92 -119 -92q-98 0 -98 84zM436 1057q0 35 41 72.5t78 37.5t69.5 -35.5t32.5 -72.5q0 -43 -33.5 -68.5t-78.5 -25.5q-43 0 -76 24.5t-33 67.5z" />
<glyph unicode="&#xfd;" horiz-adv-x="514" d="M-252 -356q0 29 19.5 48t46.5 19q20 0 38.5 -12t16.5 -12q74 0 397 649q-121 -72 -174 -72q-92 0 -92 109q0 80 57 229q66 170 129 170q27 0 46.5 -19.5t19.5 -45.5q0 -20 -14 -43q-68 -96 -101 -248l121 69q86 49 121 50q31 0 53.5 -21.5t22.5 -52.5q0 -59 -146 -332 l-196 -356q-117 -219 -244 -219q-41 0 -78 24q-43 27 -43 66zM322 1051q0 33 28 51q10 6 47 55l76 146q49 88 102 114q16 8 33 8q27 0 47.5 -19.5t20.5 -43.5q0 -45 -41 -64q-39 -27 -117 -182q-68 -133 -133 -133q-37 0 -53 29q-10 21 -10 39z" />
<glyph unicode="&#xfe;" />
<glyph unicode="&#xff;" horiz-adv-x="514" d="M-252 -356q0 29 19.5 48t46.5 19q20 0 38.5 -12t16.5 -12q74 0 397 649q-121 -72 -174 -72q-92 0 -92 109q0 80 57 229q66 170 129 170q27 0 46.5 -19.5t19.5 -45.5q0 -20 -14 -43q-68 -96 -101 -248l121 69q86 49 121 50q31 0 53.5 -21.5t22.5 -52.5q0 -59 -146 -332 l-196 -356q-117 -219 -244 -219q-41 0 -78 24q-43 27 -43 66zM184 1038q0 35 34 79t69 44q41 0 77.5 -37t36.5 -77q0 -92 -118 -93q-99 0 -99 84zM498 1036q0 35 41 73t77.5 38t69.5 -36t33 -73q0 -43 -34 -68.5t-79 -25.5q-43 0 -75.5 24.5t-32.5 67.5z" />
<glyph unicode="&#x152;" horiz-adv-x="1009" d="M0 510q0 141 98 367q111 254 221 253q33 0 51.5 -23.5t14.5 -51.5q20 4 47 4q76 0 131 -31q51 72 137 139.5t125 67.5q27 0 46.5 -19.5t19.5 -48.5q0 -35 -31 -55q-172 -117 -201 -170l105 -41q61 -29 61 -86q0 -49 -80 -168q-82 -125 -86 -174q6 -2 17 -2q43 0 124 26.5 t97 26.5q27 0 47.5 -19.5t20.5 -45.5q0 -43 -41 -62q-129 -57 -244 -57q-109 0 -141 70q-135 -125 -308 -125q-231 0 -231 225zM133 510q0 -53 20.5 -73.5t75.5 -20.5q131 0 233.5 104.5t102.5 233.5q0 172 -135 172h-6q-29 -27 -119 -168q-20 -33 -57 -33q-39 0 -58 35 q-57 -146 -57 -250z" />
<glyph unicode="&#x153;" horiz-adv-x="817" d="M-6 383q0 66 125 200t168 134q53 0 96 -80q100 111 242 111q57 0 96 -29t39 -84q0 -104 -113 -172q-88 -53 -209 -66q37 -137 135 -137q8 0 20.5 2t18.5 2q27 0 44.5 -20.5t17.5 -46.5q0 -70 -99 -70q-152 0 -229 156q-55 -33 -133 -33t-139 29q-80 36 -80 104zM135 397 q33 -14 78 -14q94 0 94 66q0 41 -28 100q-57 -51 -78 -72q-43 -43 -66 -80zM463 537q125 25 166 77q-98 1 -166 -77z" />
<glyph unicode="&#x178;" horiz-adv-x="673" d="M0 633q0 72 45 219t88 203q25 29 55 28q27 0 47.5 -19.5t20.5 -45.5l-62 -155q-62 -155 -63 -230q0 -23 6 -33q16 -8 35 -8q121 0 336 305q51 72 88 72q27 0 47.5 -20.5t18.5 -45.5v-12q-2 -8 -29 -162q-45 -244 -72 -367q-39 -174 -149 -284q-121 -123 -291 -123 q-104 0 -105 74q0 57 105 57q186 0 274 201q35 80 86 358q-166 -186 -309 -186q-172 0 -172 174zM246 1427q0 35 33.5 79t68.5 44q41 0 78 -36.5t37 -77.5q0 -92 -119 -93q-98 0 -98 84zM559 1425q0 35 41 73t78 38t69.5 -36t32.5 -73q0 -43 -33.5 -68.5t-78.5 -25.5 q-43 0 -76 24.5t-33 67.5z" />
<glyph unicode="&#x2c6;" horiz-adv-x="512" d="M0 1354q0 37 35 59q47 29 121 111q51 57 108 57q33 0 55.5 -25.5t16.5 -56.5q4 -31 74 -80q90 -63 122 -108q16 -20 17 -43q0 -27 -20.5 -46.5t-47 -19.5t-51.5 25q-35 35 -113 92q-35 25 -84 86l-83 -86q-37 -31 -84 -31q-27 0 -46.5 19.5t-19.5 46.5z" />
<glyph unicode="&#x2dc;" horiz-adv-x="612" d="M-4 1303q0 16 53 88l70 92q27 37 92 37q70 0 104 -35q10 -10 43 -66q18 -35 52 -35q41 0 60 55.5t65 55.5q29 0 49 -19.5t20 -48.5q0 -74 -60.5 -127t-133.5 -53q-92 0 -119 37q-33 47 -64 96q-31 -14 -75 -86q-39 -59 -89 -59q-27 0 -47 20.5t-20 47.5z" />
<glyph unicode="&#x2013;" horiz-adv-x="577" d="M0 627q0 29 19.5 47t46.5 18q10 0 18 -2h18q80 0 131.5 11.5t131.5 11.5q172 0 172 -82q0 -27 -19.5 -46.5t-46.5 -19.5q-18 0 -34.5 7.5t-65.5 7.5q-80 0 -133.5 -11.5t-133.5 -11.5q-104 0 -104 70zM434 575l2 -2h2z" />
<glyph unicode="&#x2014;" horiz-adv-x="790" d="M0 627q0 29 19.5 47t46.5 18q10 0 18 -2h18q80 0 238 15.5t238 15.5q172 0 172 -82q0 -27 -19.5 -46.5t-48.5 -19.5q-16 0 -33 11q-16 4 -65 4q-80 0 -240 -15.5t-240 -15.5q-104 0 -104 70zM647 584h2l2 -2z" />
<glyph unicode="&#x2018;" />
<glyph unicode="&#x2019;" />
<glyph unicode="&#x201a;" />
<glyph unicode="&#x201c;" />
<glyph unicode="&#x201d;" />
<glyph unicode="&#x201e;" />
<glyph unicode="&#x2022;" horiz-adv-x="509" d="M0 774q0 109 70.5 202t175.5 93q51 0 98 -20q61 -27 62 -72q0 -10 -5 -23q68 -61 68 -149q0 -96 -90 -168t-189 -72q-84 0 -137 61.5t-53 147.5zM133 774q0 -31 15.5 -54.5t44.5 -23.5l8 2q-51 20 -68 82v-6zM264 815q34 -25 34 -62q0 -6 -1 -12q39 33 39 64t-27 53 l-8 -4q-14 -10 -37 -39z" />
<glyph unicode="&#x2026;" horiz-adv-x="976" d="M0 332q0 37 37 75.5t74 41.5q16 39 59 38q49 0 63 -45q8 -23 9 -47q0 -59 -39 -112.5t-99 -53.5q-41 0 -72.5 31t-31.5 72zM358 319q0 35 33 78t70 43q41 0 77.5 -35.5t36.5 -76.5q0 -92 -118 -92q-99 -1 -99 83zM713 315q0 37 41 75t77.5 38t69.5 -36t33 -73 q0 -45 -34 -69.5t-79 -24.5q-43 0 -75.5 24.5t-32.5 65.5z" />
<glyph unicode="&#x2039;" horiz-adv-x="430" d="M-25 553q0 45 41 84q29 25 93 68q90 57 153 102q18 14 37 14q17 0 35 -12q31 -20 31 -57q0 -18 -11 -35q-16 -27 -90 -66q-92 -47 -137 -84q-6 -4 -10 -20q10 -10 18 -15l80 -50q39 -24 90 -36q45 -12 45 -63q0 -35 -27 -55q-17 -13 -36 -13q-11 0 -23 4l-90 35 q-23 10 -111 68.5t-88 130.5z" />
<glyph unicode="&#x203a;" horiz-adv-x="430" d="M-25 752q0 37 29 57q19 12 37 12q19 0 37 -14q96 -59 246 -170q41 -39 41 -84q0 -72 -89.5 -130t-109.5 -69q-45 -16 -90 -35q-12 -5 -23 -4q-19 0 -37 13q-29 20 -28 55q0 51 48 63.5t88 36t79 49.5q10 4 18 15q-2 16 -8 20q-45 37 -137 84q-74 39 -90 66q-11 17 -11 35 z" />
<glyph unicode="&#x2122;" />
<glyph unicode="&#xe000;" horiz-adv-x="750" d="M0 750h750v-750h-750v750z" />
<glyph unicode="&#xfb01;" horiz-adv-x="856" d="M0 242q0 33 25 53q49 43 116 180q-72 12 -90 21q-51 18 -51 65q0 27 18.5 46.5t42.5 19.5q12 0 30 -7.5t102 -17.5q25 63 36 137q20 100 88 185q78 96 172 96q27 0 44.5 -20.5t17.5 -47.5q0 -39 -43 -59q-74 -35 -86 -45q-53 -43 -70 -133q-12 -68 -30 -125q6 0 18 2 t20 2q25 0 43.5 -19.5t18.5 -46.5q0 -53 -55 -65q-16 -4 -47 -4q-20 0 -48 2q-127 -285 -211 -285q-25 0 -43 19.5t-18 46.5zM514 369q0 51 36 144t40 136q6 63 65 64q29 0 48.5 -19.5t19.5 -46.5q0 -49 -37 -145t-37 -148q0 -27 -19.5 -46t-45.5 -19q-70 0 -70 80zM676 840 q0 27 19.5 46t45.5 19q31 0 52 -24q12 4 22 4q27 0 46.5 -19.5t19.5 -46.5q0 -33 -29 -58.5t-61 -25.5q-39 0 -77 33t-38 72z" />
<glyph unicode="&#xfb02;" horiz-adv-x="856" d="M0 242q0 33 25 53q49 43 116 180q-72 12 -90 21q-51 18 -51 65q0 27 18.5 46.5t42.5 19.5q12 0 30 -7.5t102 -17.5q25 63 36 137q20 100 88 185q78 96 172 96q27 0 44.5 -20.5t17.5 -47.5q0 -39 -43 -59q-74 -35 -86 -45q-53 -43 -70 -133q-12 -68 -30 -125q6 0 18 2 t20 2q25 0 43.5 -19.5t18.5 -46.5q0 -53 -55 -65q-16 -4 -47 -4q-20 0 -48 2q-127 -285 -211 -285q-25 0 -43 19.5t-18 46.5zM514 358q0 76 80 269q84 207 92 280q8 57 62 58q74 0 71 -62v-12q-8 -61 -89 -267t-83 -266v4v-12q0 -61 -72 -61q-27 0 -44 21t-17 48z" />
<glyph unicode="&#xfb03;" horiz-adv-x="1370" d="M0 242q0 33 25 53q49 43 116 180q-72 12 -90 21q-51 18 -51 65q0 27 18.5 46.5t42.5 19.5q12 0 30 -7.5t102 -17.5q25 63 36 137q20 100 88 185q78 96 172 96q27 0 44.5 -20.5t17.5 -47.5q0 -39 -43 -59q-74 -35 -86 -45q-53 -43 -70 -133q-12 -68 -30 -125q6 0 18 2 t20 2q25 0 43.5 -19.5t18.5 -46.5q0 -53 -55 -65q-16 -4 -47 -4q-20 0 -48 2q-127 -285 -211 -285q-25 0 -43 19.5t-18 46.5zM514 242q0 33 25 53q49 43 116 180q-72 12 -90 21q-51 18 -51 65q0 27 18.5 46.5t42.5 19.5q12 0 30 -7.5t102 -17.5q25 63 36 137q20 100 88 185 q78 96 173 96q27 0 44 -20.5t17 -47.5q0 -39 -43 -59q-74 -35 -86 -45q-53 -43 -70 -133q-12 -68 -30 -125q6 0 18 2t20 2q25 0 43.5 -19.5t18.5 -46.5q0 -53 -55 -65q-16 -4 -47 -4q-20 0 -48 2q-127 -285 -211 -285q-25 0 -43 19.5t-18 46.5zM1028 369q0 51 36 144t40 136 q6 63 65 64q29 0 48.5 -19.5t19.5 -46.5q0 -49 -37 -145t-37 -148q0 -27 -19.5 -46t-45.5 -19q-70 0 -70 80zM1190 840q0 27 19.5 46t45.5 19q31 0 52 -24q12 4 22 4q27 0 46.5 -19.5t19.5 -46.5q0 -33 -29 -58.5t-61 -25.5q-39 0 -77 33t-38 72z" />
<glyph unicode="&#xfb04;" horiz-adv-x="1370" d="M0 242q0 33 25 53q49 43 116 180q-72 12 -90 21q-51 18 -51 65q0 27 18.5 46.5t42.5 19.5q12 0 30 -7.5t102 -17.5q25 63 36 137q20 100 88 185q78 96 172 96q27 0 44.5 -20.5t17.5 -47.5q0 -39 -43 -59q-74 -35 -86 -45q-53 -43 -70 -133q-12 -68 -30 -125q6 0 18 2 t20 2q25 0 43.5 -19.5t18.5 -46.5q0 -53 -55 -65q-16 -4 -47 -4q-20 0 -48 2q-127 -285 -211 -285q-25 0 -43 19.5t-18 46.5zM514 242q0 33 25 53q49 43 116 180q-72 12 -90 21q-51 18 -51 65q0 27 18.5 46.5t42.5 19.5q12 0 30 -7.5t102 -17.5q25 63 36 137q20 100 88 185 q78 96 173 96q27 0 44 -20.5t17 -47.5q0 -39 -43 -59q-74 -35 -86 -45q-53 -43 -70 -133q-12 -68 -30 -125q6 0 18 2t20 2q25 0 43.5 -19.5t18.5 -46.5q0 -53 -55 -65q-16 -4 -47 -4q-20 0 -48 2q-127 -285 -211 -285q-25 0 -43 19.5t-18 46.5zM1028 358q0 76 80 269 q84 207 92 280q8 57 62 58q74 0 71 -62v-12q-8 -61 -89 -267t-83 -266v4v-12q0 -61 -71 -61q-27 0 -44.5 21t-17.5 48z" />
</font>
</defs>
</svg>
